<svg id="Group_4063" data-name="Group 4063" xmlns="http://www.w3.org/2000/svg" xmlns:xlink="http://www.w3.org/1999/xlink" width="1081.681" height="845.43" viewBox="0 0 1081.681 845.43">
  <defs>
    <clipPath id="clip-path">
      <path id="Path_122" data-name="Path 122" d="M5012.4,871.168a18.638,18.638,0,0,0-14.746-7.31h-94.721v85.191H5071.75Z" transform="translate(-4902.934 -863.858)" fill="none"/>
    </clipPath>
  </defs>
  <g id="Group_4059" data-name="Group 4059" transform="translate(0 0)">
    <g id="Group_4058" data-name="Group 4058">
      <g id="Group_4057" data-name="Group 4057">
        <g id="Group_4056" data-name="Group 4056">
          <g id="Group_87" data-name="Group 87">
            <path id="Path_90" data-name="Path 90" d="M3935.414,420.3c-87.3,49.013-151.308,155.062-118.709,249.669,26.041,75.583,107.57,134.313,98.757,213.764-6.614,59.637-63.175,96.721-55.556,160.732,3.372,28.338,18.449,54.257,37.689,75.345,97.137,106.455,244.623,95.512,375.688,79.268,153.806-19.061,302.752-71.631,438.144-146.326,54.645-30.146,109.056-65.459,142.9-117.864,61.354-95,38-227.256-31.722-316.306S4646.085,477.146,4538.216,443C4344.545,381.69,4127.265,312.589,3935.414,420.3Z" transform="translate(-3808.064 -363.975)" fill="#e6edff"/>
            <path id="Path_91" data-name="Path 91" d="M4127.422,478.168a60.736,60.736,0,0,0-26.6,6.1A34.061,34.061,0,0,0,4041,496.068h129.578A60.788,60.788,0,0,0,4127.422,478.168Z" transform="translate(-3889.532 -401.443)" fill="#cddbfe"/>
            <path id="Path_92" data-name="Path 92" d="M5044.68,653.288a27.345,27.345,0,0,0-31.934,2.311c-4.9-18.964-24.057-33.193-43.629-32.4-25.379,1.033-32.268,19.609-42.1,38.2-4.178-2.062-6.5-6.746-10.611-9.21-7.441-4.452-18.182-4.438-26.293-2.132a39.085,39.085,0,0,0-24.191,20.381,27.419,27.419,0,0,0-29.869-9.6,27.122,27.122,0,0,0-14.99,12.75H5056.6A27.338,27.338,0,0,0,5044.68,653.288Z" transform="translate(-4162.439 -454.806)" fill="#fff"/>
            <g id="Group_85" data-name="Group 85" transform="translate(225.577 294.492)">
              <g id="Group_74" data-name="Group 74" transform="translate(0 0)">
                <path id="Path_93" data-name="Path 93" d="M4839.605,812.615H4948.52a24.788,24.788,0,0,1,18.725,8.573l101.277,116.827,54.127,26.224a41.087,41.087,0,0,1,23.09,37.009v136.986H4839.605Z" transform="translate(-4397.53 -772.252)" fill="#3dbeff"/>
                <path id="Path_94" data-name="Path 94" d="M4963.852,837.939a14.606,14.606,0,0,0-11-5h-99.6V934.162h194.7Z" transform="translate(-4404.099 -782.04)" fill="#4f94f9"/>
                <g id="Group_70" data-name="Group 70" transform="translate(717.255 253.295)">
                  <path id="Path_95" data-name="Path 95" d="M5370.352,1248.11c0,11.463,7.588,21.066,17.76,23.558v-47.119C5377.939,1227.033,5370.352,1236.615,5370.352,1248.11Z" transform="translate(-5370.352 -1223.902)" fill="#fff"/>
                  <path id="Path_96" data-name="Path 96" d="M5409.8,1223.3a21.848,21.848,0,0,0-5.2.646v47.12a21.825,21.825,0,0,0,5.2.649,17.744,17.744,0,0,0,3.182-.26v-47.895A17.744,17.744,0,0,0,5409.8,1223.3Z" transform="translate(-5386.844 -1223.302)" fill="#fff"/>
                </g>
                <g id="Group_71" data-name="Group 71" transform="translate(509.282 289.396)">
                  <path id="Path_97" data-name="Path 97" d="M5122.581,1369.591H4969.228a76.677,76.677,0,0,1,153.354,0Z" transform="translate(-4969.228 -1292.93)" fill="#0073ac"/>
                  <path id="Path_98" data-name="Path 98" d="M5121.667,1381.822H4994.628a63.52,63.52,0,0,1,127.039,0Z" transform="translate(-4981.458 -1305.161)" fill="#1d1d1b"/>
                  <ellipse id="Ellipse_9" data-name="Ellipse 9" cx="59.55" cy="59.55" rx="59.55" ry="59.55" transform="translate(17.129 17.128)" fill="#575756"/>
                  <ellipse id="Ellipse_10" data-name="Ellipse 10" cx="36.605" cy="36.605" rx="36.605" ry="36.605" transform="translate(34.683 106.947) rotate(-80.783)" fill="#cddbfe"/>
                  <path id="Path_99" data-name="Path 99" d="M5097.88,1442.3a20.721,20.721,0,1,1,20.717-20.721A20.743,20.743,0,0,1,5097.88,1442.3Z" transform="translate(-5021.2 -1344.899)" fill="#878787"/>
                </g>
                <path id="Path_5944" data-name="Path 5944" d="M78.951,0h358.9V365.983H0V78.951A78.951,78.951,0,0,1,78.951,0Z" transform="translate(4.224 0)" fill="#0390d7"/>
                <g id="Group_72" data-name="Group 72" transform="translate(653.853 133.039)">
                  <path id="Path_100" data-name="Path 100" d="M5275.34,1027.681a36.282,36.282,0,0,0-16.412-30.664v61.327A36.283,36.283,0,0,0,5275.34,1027.681Z" transform="translate(-5253.293 -994.084)" fill="#0390d7"/>
                  <path id="Path_101" data-name="Path 101" d="M5248.064,991.36v67.194a33.8,33.8,0,0,0,5.635-2.933V994.293A33.858,33.858,0,0,0,5248.064,991.36Z" transform="translate(-5248.064 -991.36)" fill="#706f6f"/>
                </g>
                <g id="Group_73" data-name="Group 73" transform="translate(131.209 289.396)">
                  <path id="Path_102" data-name="Path 102" d="M4393.384,1369.591H4240.03a76.677,76.677,0,0,1,153.354,0Z" transform="translate(-4240.03 -1292.93)" fill="#0073ac"/>
                  <path id="Path_103" data-name="Path 103" d="M4392.472,1381.822H4265.43a63.521,63.521,0,0,1,127.042,0Z" transform="translate(-4252.26 -1305.161)" fill="#1d1d1b"/>
                  <ellipse id="Ellipse_11" data-name="Ellipse 11" cx="59.55" cy="59.55" rx="59.55" ry="59.55" transform="translate(17.129 17.128)" fill="#575756"/>
                  <ellipse id="Ellipse_12" data-name="Ellipse 12" cx="36.605" cy="36.605" rx="36.605" ry="36.605" transform="translate(34.683 106.947) rotate(-80.783)" fill="#cddbfe"/>
                  <path id="Path_104" data-name="Path 104" d="M4368.679,1442.3a20.721,20.721,0,1,1,20.722-20.721A20.742,20.742,0,0,1,4368.679,1442.3Z" transform="translate(-4292.002 -1344.899)" fill="#878787"/>
                </g>
                <rect id="Rectangle_17" data-name="Rectangle 17" width="57.258" height="31.661" transform="translate(698.589 334.311)" fill="#3c3c3b"/>
                <path id="Rectangle_18" data-name="Rectangle 18" d="M0,0H3.533A19.247,19.247,0,0,1,22.779,19.247v12.59A19.247,19.247,0,0,1,3.533,51.083H0a0,0,0,0,1,0,0V0A0,0,0,0,1,0,0Z" transform="translate(7.297 291.732)" fill="#3dbeff"/>
                <rect id="Rectangle_19" data-name="Rectangle 19" width="60.153" height="35.556" transform="translate(0 330.415)" fill="#3c3c3b"/>
              </g>
              <g id="Group_82" data-name="Group 82" transform="translate(474.909 66.932)">
                <g id="Group_81" data-name="Group 81" clip-path="url(#clip-path)">
                  <g id="Group_78" data-name="Group 78" transform="translate(26.309 4.375)">
                    <path id="Path_105" data-name="Path 105" d="M4953.677,1011.02c2-16.829,9.832-27.734,18.912-31.515a29.552,29.552,0,0,1,27.938,3.212c8.277,5.678,14.137,15.54,15.908,26.284Z" transform="translate(-4953.677 -922.887)" fill="#70bb92"/>
                    <path id="Path_106" data-name="Path 106" d="M5013.706,971.4a4.8,4.8,0,0,1-3.145.651,17.75,17.75,0,0,1-8.656-2.643c-2.949-1.822-2.75-2.869-2.73-6.075.02-4.172,0-8.345,0-12.517h15.57v10.12c0,2.422-.008,4.844,0,7.265C5014.745,969.775,5014.466,970.8,5013.706,971.4Z" transform="translate(-4975.583 -910.105)" fill="#fe9592"/>
                    <path id="Path_107" data-name="Path 107" d="M5061.78,912.36a11.033,11.033,0,0,0,.688,1.974C5062.274,913.67,5062.038,913.014,5061.78,912.36Z" transform="translate(-5005.729 -891.588)" fill="#fe9592"/>
                    <path id="Path_108" data-name="Path 108" d="M5025.91,903.738a2.436,2.436,0,0,1-.9,1.684,14.7,14.7,0,0,1-2.227,1.8c-.432,6.287-.52,11.753-5.43,15-9.816,6.518-27.236,1.539-35.707-11.193-8.449-12.737-5.82-25.911,3.975-32.426s23.063-3.891,31.512,8.845a35.484,35.484,0,0,1,3.619,7,11.15,11.15,0,0,0,.686,1.974,19.278,19.278,0,0,0,3.477,5.679A2.719,2.719,0,0,1,5025.91,903.738Z" transform="translate(-4964.703 -873.678)" fill="#fe9592"/>
                    <path id="Path_109" data-name="Path 109" d="M5061.78,912.36a11.033,11.033,0,0,0,.688,1.974C5062.274,913.67,5062.038,913.014,5061.78,912.36Z" transform="translate(-5005.729 -891.588)" fill="#fe9592"/>
                    <path id="Path_110" data-name="Path 110" d="M5026.823,895.054a4.206,4.206,0,0,1,.078,1.839c-.8,4.688-7.412,8.093-11.229,10.01a68.006,68.006,0,0,1-10.725,3.759,8.351,8.351,0,0,0-2.7,1.193,3.06,3.06,0,0,0-1.152,1.622c-.184.776.205,1,.451,1.676a8.315,8.315,0,0,0-3.346-.326,2.24,2.24,0,0,0-.434,4.414c1.1.426,2.7-.172,3.051,1.047.258.9-.734,2.3-1.213,3.007a10.928,10.928,0,0,1-2.408,2.58c-.609.472-2.277.954-2.666,1.5a2.044,2.044,0,0,0,.3-1.719,6.953,6.953,0,0,1-4.814,3.334c.285-.467.568-.935.854-1.4a8.922,8.922,0,0,1-4.594,3.359,8.4,8.4,0,0,0,.1-6.446c-.7-1.976-2.531-3.7-3.023-5.663a8.733,8.733,0,0,1,.938-5.606,14.91,14.91,0,0,1,4.236-4.705c4.506-3.482,9.914-5.562,15.279-7.469,3.152-1.122,6.383-2.076,9.523-3.239a46.154,46.154,0,0,0,6.582-3.411,9.007,9.007,0,0,1,4.035-1.124,3.327,3.327,0,0,1,1.854.362A2.376,2.376,0,0,1,5026.823,895.054Z" transform="translate(-4967.895 -882.398)" fill="#03277d"/>
                    <g id="Group_75" data-name="Group 75" transform="translate(10.411)">
                      <path id="Path_111" data-name="Path 111" d="M5013.227,882.727l-31.92,22.605-2.535,1.808c-.6-1.092-1.168-2.167-1.7-3.247-3.2-6.726-4.463-12.884-2.09-18.427a.1.1,0,0,0,.02-.047c1.436-3.381,4.229-6.529,8.742-9.452C4994.7,868.9,5004.576,872.516,5013.227,882.727Z" transform="translate(-4973.755 -872.296)" fill="#fe2d5d"/>
                      <path id="Path_112" data-name="Path 112" d="M4981.307,917.563l-2.535,1.809c-.6-1.093-1.168-2.166-1.7-3.247-3.2-6.725-4.463-12.884-2.09-18.426C4974.246,905.223,4977.074,911.56,4981.307,917.563Z" transform="translate(-4973.755 -884.528)" fill="#cb0030"/>
                      <path id="Path_113" data-name="Path 113" d="M4983.44,912.357s47.225-17.861,44.887-28.628c-.5-2.279-11.676,2.791-11.676,2.791Z" transform="translate(-4978.42 -877.518)" fill="#cb0030"/>
                    </g>
                    <g id="Group_76" data-name="Group 76" transform="translate(57.069 29.679)">
                      <path id="Path_114" data-name="Path 114" d="M5067.887,929.92a1.447,1.447,0,0,0-.084-.381,3.991,3.991,0,0,1-2.484,2.063,3.8,3.8,0,0,0-1.135.367.8.8,0,0,0-.355,1.024,1.1,1.1,0,0,0,.982.354l.031,0a14.4,14.4,0,0,0,2.145-1.74A2.429,2.429,0,0,0,5067.887,929.92Z" transform="translate(-5063.748 -929.539)" fill="#fb7874"/>
                    </g>
                    <path id="Path_115" data-name="Path 115" d="M5029.451,939.191a2,2,0,0,0,.041,1.961,3.716,3.716,0,0,0,1.488,1.38,6.7,6.7,0,0,0,2.494.811,1.9,1.9,0,0,0,1.91-.628,1.362,1.362,0,0,0,.078-1.131,2.8,2.8,0,0,0-.633-.976C5033.906,939.6,5030.555,937.391,5029.451,939.191Z" transform="translate(-4990.049 -904.178)" fill="#fb7874"/>
                    <g id="Group_77" data-name="Group 77" transform="translate(76.378 51.65)">
                      <path id="Path_116" data-name="Path 116" d="M5105.24,1014.586a4.2,4.2,0,0,1-.93-.106,4.25,4.25,0,0,1-3.217-5.082l7.7-34.168a4.25,4.25,0,0,1,8.293,1.869l-7.7,34.168A4.256,4.256,0,0,1,5105.24,1014.586Z" transform="translate(-5100.988 -971.913)" fill="#474136"/>
                    </g>
                    <path id="Path_117" data-name="Path 117" d="M5102.792,991.781a12.878,12.878,0,0,1,9.516-.041c.572.228,1.2.586,1.3,1.2.111.714-.553,1.279-1.086,1.768a7.679,7.679,0,0,0-2.443,5.916c-2.227,1.532-5.641-.389-7.855,1.161-1.971,1.377-1.807,4.73-3.908,5.9a3.364,3.364,0,0,1-4.113-1.068C5090.241,1001.447,5098.479,993.541,5102.792,991.781Z" transform="translate(-5020.837 -929.382)" fill="#fe9592"/>
                    <path id="Path_118" data-name="Path 118" d="M5002.563,1006.532c5.057,6.916,8.9,14.628,12.715,22.3a153.817,153.817,0,0,1,26.891-22.877,7.266,7.266,0,0,0,4.164,7.181,212.821,212.821,0,0,1-18.207,25.362c-3.051,3.653-6.666,7.444-11.389,8.011-5.66.679-10.691-3.5-14.455-7.781-6.619-7.529-15.348-19.141-15.971-29.541-.215-3.6.8-6.627,4.375-7.929C4995.844,999.38,4999.672,1002.576,5002.563,1006.532Z" transform="translate(-4969.378 -934.128)" fill="#70bb92"/>
                  </g>
                  <g id="Group_80" data-name="Group 80" transform="translate(58.904 29.794)">
                    <path id="Path_119" data-name="Path 119" d="M5043.862,922.837a55.194,55.194,0,0,1-7.059,4.583,16.406,16.406,0,0,1-8.1,1.991c-.777-.037-1.756-.055-2.125.637a1.88,1.88,0,0,0-.107,1.077,22.79,22.79,0,0,0,6.162,13.258c1.34,1.4,3.082,2.7,5.012,2.526a7.037,7.037,0,0,0,3.748-1.969,41.568,41.568,0,0,0,5.756-6.015c2.035-2.6,3.793-5.559,4.18-8.837a9.553,9.553,0,0,0-1.576-6.589,6,6,0,0,0-2.205-2.1C5046.327,921.015,5044.784,922.177,5043.862,922.837Z" transform="translate(-5021.315 -921.322)" fill="#e6edff"/>
                    <path id="Path_120" data-name="Path 120" d="M5035.041,961.8a22.57,22.57,0,0,0,1.736,2.077c1.34,1.4,3.084,2.7,5.012,2.525a6.988,6.988,0,0,0,3.744-1.969c.146-.123.273-.266.418-.39A14.58,14.58,0,0,1,5035.041,961.8Z" transform="translate(-5025.451 -940.811)" fill="#d1d1d1"/>
                    <g id="Group_79" data-name="Group 79" transform="translate(0 7.35)">
                      <path id="Path_121" data-name="Path 121" d="M5023.207,937.926a1.783,1.783,0,0,1-.605-.054c-.422-.084-5.639-1.881-6.059-2.188a8.86,8.86,0,0,1,1.777-.185,6,6,0,0,1,1.691.435c.824.253,1.65.508,2.488.738a8.183,8.183,0,0,1,1.043.916C5023.471,937.767,5023.42,937.892,5023.207,937.926Z" transform="translate(-5016.543 -935.499)" fill="#e6edff"/>
                    </g>
                  </g>
                </g>
              </g>
              <g id="Group_84" data-name="Group 84" transform="translate(47.359 97.492)">
                <g id="Group_83" data-name="Group 83" transform="translate(79.576 50.723)">
                  <path id="Path_123" data-name="Path 123" d="M4249.222,1020.63a11.044,11.044,0,0,1,8.751,4.08,11.207,11.207,0,0,1,2.309,9.992l-1.231,6.074q-1.295,6.561-5.274,10.085a13.945,13.945,0,0,1-9.587,3.524h-12.4l6.746-33.756Zm-4.128,6.028-4.334,21.7h4.1a5.028,5.028,0,0,0,4.1-1.994,12.815,12.815,0,0,0,2.317-5.586l1.229-6.12q.721-3.663-.7-5.831a4.823,4.823,0,0,0-4.327-2.167Z" transform="translate(-4231.786 -1020.63)" fill="#fff"/>
                  <path id="Path_124" data-name="Path 124" d="M4312.867,1039.942h-12.08l-1.669,8.416h14.258l-1.2,6.028h-22.023l6.746-33.756h22.069l-1.208,6.028H4303.45l-1.457,7.256h12.08Z" transform="translate(-4259.889 -1020.63)" fill="#fff"/>
                  <path id="Path_125" data-name="Path 125" d="M4350.288,1048.358h13.327l-1.2,6.028h-21.1l6.748-33.756h7.767Z" transform="translate(-4284.527 -1020.63)" fill="#fff"/>
                  <path id="Path_126" data-name="Path 126" d="M4398.944,1054.386h-7.721l6.748-33.756h7.719Z" transform="translate(-4308.557 -1020.63)" fill="#fff"/>
                  <path id="Path_127" data-name="Path 127" d="M4435.162,1045.229l.021,1.043.141.022.348-.973,9.852-24.691h8.119l-15.467,33.756h-8.369l-4.59-33.756h8.068Z" transform="translate(-4324.928 -1020.63)" fill="#fff"/>
                  <path id="Path_128" data-name="Path 128" d="M4498.7,1039.942h-12.08l-1.666,8.416h14.254l-1.207,6.028h-22.02l6.746-33.756h22.068l-1.2,6.028h-14.307l-1.461,7.256h12.08Z" transform="translate(-4349.372 -1020.63)" fill="#fff"/>
                  <path id="Path_129" data-name="Path 129" d="M4537.5,1041.45l-2.572,12.936h-7.789l6.746-33.756h12.24q5.147,0,7.988,2.759t1.936,7.373a9.7,9.7,0,0,1-2.215,4.648,11.775,11.775,0,0,1-4.441,2.956,5.749,5.749,0,0,1,3.537,3.014,8.072,8.072,0,0,1,.359,4.984l-.416,2.134a13.457,13.457,0,0,0-.244,3.037,3.264,3.264,0,0,0,.8,2.388l-.094.463h-7.975a3.226,3.226,0,0,1-.627-2.493,24.835,24.835,0,0,1,.418-3.442l.418-2.041q.507-2.572-.326-3.767a3.455,3.455,0,0,0-3.037-1.193Zm1.207-6.03h4.543a4.944,4.944,0,0,0,4.986-4.172,4.364,4.364,0,0,0-.428-3.4,3.3,3.3,0,0,0-2.891-1.193h-4.445Z" transform="translate(-4374.005 -1020.63)" fill="#fff"/>
                  <path id="Path_130" data-name="Path 130" d="M4603.66,1034.841l.141.023,8.74-14.235h8.391l-14.951,21.816-2.387,11.939h-7.721l2.479-12.357-6.1-21.4h8.369Z" transform="translate(-4405.361 -1020.63)" fill="#fff"/>
                </g>
                <line id="Line_16" data-name="Line 16" x1="234.1" transform="translate(0 100.276)" fill="none" stroke="#fff" stroke-linecap="round" stroke-linejoin="round" stroke-width="7.172"/>
                <line id="Line_17" data-name="Line 17" x2="39.017" transform="translate(14.451 84.481)" fill="none" stroke="#fff" stroke-linecap="round" stroke-linejoin="round" stroke-width="7.172"/>
                <line id="Line_18" data-name="Line 18" x2="27.927" transform="translate(32.343 71.001)" fill="none" stroke="#fff" stroke-linecap="round" stroke-linejoin="round" stroke-width="7.172"/>
                <path id="Path_131" data-name="Path 131" d="M4457.021,950.807a69.147,69.147,0,1,1,4.654,87.9" transform="translate(-4260.667 -922.8)" fill="none" stroke="#fff" stroke-linecap="round" stroke-linejoin="round" stroke-width="14.344"/>
              </g>
            </g>
            <path id="Path_132" data-name="Path 132" d="M4407.321,600.421a19.848,19.848,0,0,0-10.219,2.825,26.371,26.371,0,0,0-46.713-2.691,20,20,0,0,0-17.258,15.245h93.646A20,20,0,0,0,4407.321,600.421Z" transform="translate(-3991.748 -442.367)" fill="#cddbfe"/>
            <g id="Group_86" data-name="Group 86" transform="translate(37.08 625.366)">
              <line id="Line_19" data-name="Line 19" x2="26.979" transform="translate(191.181 70.399)" fill="none" stroke="#85d6ff" stroke-linecap="round" stroke-linejoin="round" stroke-width="6.221"/>
              <line id="Line_20" data-name="Line 20" x2="82.714" transform="translate(24.995 70.399)" fill="none" stroke="#85d6ff" stroke-linecap="round" stroke-linejoin="round" stroke-width="6.221"/>
              <line id="Line_21" data-name="Line 21" x2="131.782" transform="translate(36.283 45.934)" fill="none" stroke="#85d6ff" stroke-linecap="round" stroke-linejoin="round" stroke-width="6.221"/>
              <line id="Line_22" data-name="Line 22" x2="122.04" transform="translate(0 21.67)" fill="none" stroke="#85d6ff" stroke-linecap="round" stroke-linejoin="round" stroke-width="6.221"/>
              <line id="Line_23" data-name="Line 23" x2="81.939" transform="translate(90.988 0)" fill="none" stroke="#85d6ff" stroke-linecap="round" stroke-linejoin="round" stroke-width="6.221"/>
            </g>
          </g>
        </g>
      </g>
    </g>
  </g>
</svg>
