<svg id="Group_4061" data-name="Group 4061" xmlns="http://www.w3.org/2000/svg" xmlns:xlink="http://www.w3.org/1999/xlink" width="1081.681" height="845.43" viewBox="0 0 1081.681 845.43">
  <defs>
    <linearGradient id="linear-gradient" x1="-0.058" y1="0.68" x2="0.319" y2="0.27" gradientUnits="objectBoundingBox">
      <stop offset="0" stop-color="#febd85"/>
      <stop offset="1" stop-color="#ffd9b8"/>
    </linearGradient>
    <linearGradient id="linear-gradient-2" x1="7.732" y1="0.495" x2="8.736" y2="0.51" xlink:href="#linear-gradient"/>
    <linearGradient id="linear-gradient-3" x1="6.149" y1="0.492" x2="6.934" y2="0.507" xlink:href="#linear-gradient"/>
    <linearGradient id="linear-gradient-4" x1="0.086" y1="0.5" x2="0.807" y2="0.5" gradientUnits="objectBoundingBox">
      <stop offset="0" stop-color="#0390d7"/>
      <stop offset="1" stop-color="#3dbeff"/>
    </linearGradient>
    <linearGradient id="linear-gradient-5" x1="1.272" y1="5.539" x2="-0.354" y2="-12.642" gradientUnits="objectBoundingBox">
      <stop offset="0" stop-color="#0390d7"/>
      <stop offset="1" stop-color="#a5e1ff"/>
    </linearGradient>
    <linearGradient id="linear-gradient-6" x1="-1.23" y1="6.136" x2="-14.283" y2="-4.29" gradientUnits="objectBoundingBox">
      <stop offset="0" stop-color="#0390d7"/>
      <stop offset="1" stop-color="#be6fd3"/>
    </linearGradient>
    <linearGradient id="linear-gradient-7" x1="0.145" y1="1.033" x2="1.485" y2="-0.978" xlink:href="#linear-gradient-4"/>
    <linearGradient id="linear-gradient-8" x1="0.5" y1="0.571" x2="0.5" y2="1.131" gradientUnits="objectBoundingBox">
      <stop offset="0" stop-color="#e6edff"/>
      <stop offset="1" stop-color="#fcebf9"/>
    </linearGradient>
    <linearGradient id="linear-gradient-9" x1="-1.092" y1="0.812" x2="-0.171" y2="-0.039" xlink:href="#linear-gradient"/>
    <linearGradient id="linear-gradient-10" x1="-1.147" y1="0.704" x2="-0.757" y2="0.306" gradientUnits="objectBoundingBox">
      <stop offset="0" stop-color="#fcd7f9"/>
      <stop offset="1" stop-color="#fcebf9"/>
    </linearGradient>
    <linearGradient id="linear-gradient-11" x1="0.028" y1="1.033" x2="0.459" y2="0.421" gradientUnits="objectBoundingBox">
      <stop offset="0" stop-color="#4c2a71"/>
      <stop offset="1" stop-color="#7d3f95"/>
    </linearGradient>
    <linearGradient id="linear-gradient-12" x1="0.126" y1="1.076" x2="0.959" y2="-0.207" gradientUnits="objectBoundingBox">
      <stop offset="0" stop-color="#814db0"/>
      <stop offset="1" stop-color="#be6fd3"/>
    </linearGradient>
    <linearGradient id="linear-gradient-13" x1="0.472" y1="0.5" x2="0.151" y2="0.783" xlink:href="#linear-gradient-4"/>
    <linearGradient id="linear-gradient-14" y1="0.5" x2="1" y2="0.5" gradientUnits="objectBoundingBox">
      <stop offset="0" stop-color="#ffbd49"/>
      <stop offset="1" stop-color="#fdaf32"/>
    </linearGradient>
    <linearGradient id="linear-gradient-15" x1="0.622" y1="0.5" x2="-0.065" y2="0.5" gradientUnits="objectBoundingBox">
      <stop offset="0" stop-color="#3dbeff"/>
      <stop offset="1" stop-color="#0390d7"/>
    </linearGradient>
    <linearGradient id="linear-gradient-16" x1="0.5" y1="-11.305" x2="0.5" y2="-83.756" xlink:href="#linear-gradient-14"/>
    <linearGradient id="linear-gradient-17" x1="0.5" y1="-0.063" x2="0.5" y2="-2.651" gradientUnits="objectBoundingBox">
      <stop offset="0" stop-color="#0390d7"/>
      <stop offset="1" stop-color="#7d3f95"/>
    </linearGradient>
    <linearGradient id="linear-gradient-18" x1="0" y1="0.5" x2="1" y2="0.5" xlink:href="#linear-gradient-14"/>
    <linearGradient id="linear-gradient-20" x1="-7.752" y1="-0.105" x2="-7.752" y2="0.782" gradientUnits="objectBoundingBox">
      <stop offset="0" stop-color="#fff"/>
      <stop offset="1" stop-color="#bababa"/>
    </linearGradient>
    <linearGradient id="linear-gradient-21" x1="0.5" y1="0.124" x2="0.5" y2="0.998" gradientUnits="objectBoundingBox">
      <stop offset="0" stop-color="#fff"/>
      <stop offset="1" stop-color="#d9d9d9"/>
    </linearGradient>
    <linearGradient id="linear-gradient-22" x1="0.752" y1="0.859" x2="0.286" y2="0.196" gradientUnits="objectBoundingBox">
      <stop offset="0" stop-color="#ffbd49"/>
      <stop offset="1" stop-color="#ffcb5a"/>
    </linearGradient>
    <linearGradient id="linear-gradient-23" x1="0.612" y1="0.5" x2="0.037" y2="0.5" gradientUnits="objectBoundingBox">
      <stop offset="0"/>
      <stop offset="1" stop-color="#fff"/>
    </linearGradient>
    <linearGradient id="linear-gradient-24" x1="0.395" y1="0.758" x2="0.705" y2="-0.003" xlink:href="#linear-gradient-22"/>
    <linearGradient id="linear-gradient-25" x1="0.5" y1="0.934" x2="0.5" y2="0.331" xlink:href="#linear-gradient-22"/>
    <linearGradient id="linear-gradient-26" x1="0.5" y1="2.876" x2="0.5" y2="-1.393" xlink:href="#linear-gradient-12"/>
    <linearGradient id="linear-gradient-27" x1="0.5" y1="2.804" x2="0.5" y2="-1.3" xlink:href="#linear-gradient-12"/>
    <linearGradient id="linear-gradient-28" x1="0.5" y1="2.238" x2="0.5" y2="-1.071" xlink:href="#linear-gradient-12"/>
    <linearGradient id="linear-gradient-29" x1="0.5" y1="3.502" x2="0.5" y2="-2.191" xlink:href="#linear-gradient-12"/>
    <linearGradient id="linear-gradient-31" x1="0.5" y1="3.056" x2="0.5" y2="-1.622" xlink:href="#linear-gradient-12"/>
    <linearGradient id="linear-gradient-32" x1="0.5" y1="2.893" x2="0.5" y2="-1.384" xlink:href="#linear-gradient-12"/>
    <linearGradient id="linear-gradient-33" x1="0.5" y1="3.611" x2="0.5" y2="-2.288" xlink:href="#linear-gradient-12"/>
    <linearGradient id="linear-gradient-35" x1="0.625" y1="0.27" x2="0.192" y2="1.065" gradientUnits="objectBoundingBox">
      <stop offset="0" stop-color="#ffd149"/>
      <stop offset="1" stop-color="#fdaf32"/>
    </linearGradient>
    <linearGradient id="linear-gradient-36" x1="-0.209" y1="1.216" x2="0.753" y2="0.245" gradientUnits="objectBoundingBox">
      <stop offset="0" stop-color="#ffbd49"/>
      <stop offset="1" stop-color="#eb8c32"/>
    </linearGradient>
    <linearGradient id="linear-gradient-37" x1="0.34" y1="1.058" x2="0.667" y2="-0.081" gradientUnits="objectBoundingBox">
      <stop offset="0" stop-color="#e6edff"/>
      <stop offset="0.713" stop-color="#f6ecfb"/>
      <stop offset="1" stop-color="#fcebf9"/>
    </linearGradient>
    <linearGradient id="linear-gradient-38" x1="0.5" y1="0.128" x2="0.5" y2="2.702" xlink:href="#linear-gradient-35"/>
    <linearGradient id="linear-gradient-39" x1="0" y1="0.5" x2="1" y2="0.5" xlink:href="#linear-gradient-35"/>
    <linearGradient id="linear-gradient-40" x1="0.225" y1="1.142" x2="0.589" y2="0.003" gradientUnits="objectBoundingBox">
      <stop offset="0" stop-color="#e6edff"/>
      <stop offset="1" stop-color="#aac1ff"/>
    </linearGradient>
    <linearGradient id="linear-gradient-41" x1="-0.258" y1="1.665" x2="0.595" y2="0.355" xlink:href="#linear-gradient-4"/>
    <linearGradient id="linear-gradient-42" x1="0.705" y1="0.203" x2="0.004" y2="1.219" xlink:href="#linear-gradient-35"/>
  </defs>
  <g id="Group_4048" data-name="Group 4048" transform="translate(0 0)">
    <g id="Group_4047" data-name="Group 4047">
      <g id="Group_4046" data-name="Group 4046">
        <g id="Group_4031" data-name="Group 4031">
          <path id="Path_5998" data-name="Path 5998" d="M3935.414,420.3c-87.3,49.013-151.308,155.062-118.709,249.669,26.041,75.583,107.57,134.313,98.757,213.764-6.614,59.637-63.175,96.721-55.556,160.732,3.372,28.338,18.449,54.257,37.689,75.345,97.137,106.455,244.623,95.512,375.688,79.268,153.806-19.061,302.752-71.631,438.144-146.326,54.645-30.146,109.056-65.459,142.9-117.864,61.354-95,38-227.256-31.722-316.306S4646.085,477.146,4538.216,443C4344.545,381.69,4127.265,312.589,3935.414,420.3Z" transform="translate(-3808.064 -363.975)" fill="#e6edff"/>
          <g id="Group_4030" data-name="Group 4030" transform="translate(100.117 29.664)">
            <path id="Path_5844" data-name="Path 5844" d="M995.073,1477.346a115.169,115.169,0,0,0-5.287-12.291c-65.489-26.648-98.4-124.958-105.409-142.386s-22.624-28.481-48.905-23.755c-26.261,4.737-61.617,13.151-84.17,3.4-22.665-9.78-16.023-27.585,10.634-35.247,26.637-7.65,73.261-27.115,73.261-27.115l18.07-157.675s112.489-81.228,138.327-58.38c0,0,106.3,157.922,110.324,193.095,4.35,39.788,5.012,104.513,29.235,186.086,4.167,14.024,13.906,37.174,27.7,67.028Z" transform="translate(-450.765 -673.881)" fill="url(#linear-gradient)"/>
            <path id="Path_5845" data-name="Path 5845" d="M1209.657,1023.917s3.784,5.613,9.937,14.932c1.289,40.39,4.329,122.89,7.863,128.879,4.691,7.936,24.2,35.51,24.2,35.51s-35.23-30.609-50.572-42.966c-12.172-9.821-7.038-102.578-4.42-140.39C1202.042,1019.9,1206.5,1021.116,1209.657,1023.917Z" transform="translate(-668.828 -673.937)" fill="#feb783" opacity="0.3" style="mix-blend-mode: multiply;isolation: isolate"/>
            <path id="Path_5846" data-name="Path 5846" d="M931.515,1469.853l.8-7.06,117.572,1.272,12.162,33.239-139.085-23.959C928.225,1471.218,931.515,1469.853,931.515,1469.853Z" transform="translate(-539.475 -885.835)" fill="#feb783" opacity="0.3" style="mix-blend-mode: multiply;isolation: isolate"/>
            <path id="Path_5847" data-name="Path 5847" d="M701.643,1081.387s-31.282-.49-32.678,23.5,14.75,34.431,32.617,36.264l5.379-.02-.479-58.368Z" transform="translate(-417.905 -703.367)" fill="url(#linear-gradient-2)"/>
            <path id="Path_5848" data-name="Path 5848" d="M695.056,1293.977s-41.846-7.334-40.929,26.585c.7,26.547,34.2,28.635,42.09,31.162l6.621-.876-2.791-54.589Z" transform="translate(-410.839 -804.751)" fill="url(#linear-gradient-3)"/>
            <path id="Path_5849" data-name="Path 5849" d="M1166.806,1806.317c5.419-10.941,22.431-16.166,23.078-16.258l.81.254s-16.868,8.649-22.094,17.929a59.024,59.024,0,0,0-2.551,5.9c-.23-.489-.48-1.02-.7-1.436-.306-.133-.6-.285-.9-.409A39.688,39.688,0,0,1,1166.806,1806.317Z" transform="translate(-655.014 -1042.393)" fill="#feb783" opacity="0.2" style="mix-blend-mode: multiply;isolation: isolate"/>
            <g id="Group_3915" data-name="Group 3915" transform="translate(280.255 48.289)">
              <path id="Path_5850" data-name="Path 5850" d="M961.412,449.2a30.882,30.882,0,0,1,30.85,30.824l.209,480.168a30.848,30.848,0,0,1-30.814,30.844l-201.253.082A30.848,30.848,0,0,1,729.559,960.3l-.2-480.158a30.852,30.852,0,0,1,30.8-30.855Z" transform="translate(-727.095 -449.199)" fill="#ebebeb"/>
              <g id="Group_3911" data-name="Group 3911" transform="translate(0 108.552)">
                <path id="Path_5851" data-name="Path 5851" d="M725.041,714.933c.01,2.022,1.029,3.667,2.271,3.657,1.252.02,2.261-1.64,2.251-3.672l-.021-53.912c.011-2.022-1.019-3.677-2.261-3.672s-2.251,1.65-2.261,3.672Z" transform="translate(-725.02 -657.334)" fill="#ebebeb"/>
              </g>
              <g id="Group_3912" data-name="Group 3912" transform="translate(263.849 148.202)">
                <path id="Path_5852" data-name="Path 5852" d="M1230.94,768.238c0,2.018.952,3.672,2.128,3.672s2.13-1.655,2.13-3.672l-.021-31.211c0-2.018-.957-3.668-2.129-3.668s-2.13,1.65-2.13,3.677Z" transform="translate(-1230.918 -733.359)" fill="#ebebeb"/>
              </g>
              <g id="Group_3913" data-name="Group 3913" transform="translate(263.838 104.768)">
                <path id="Path_5853" data-name="Path 5853" d="M1230.909,684.951c0,2.022.957,3.672,2.127,3.672s2.125-1.66,2.13-3.672l-.016-31.206c.006-2.017-.962-3.667-2.133-3.667s-2.12,1.65-2.12,3.667Z" transform="translate(-1230.898 -650.078)" fill="#ebebeb"/>
              </g>
              <g id="Group_3914" data-name="Group 3914" transform="translate(263.813 68.677)">
                <path id="Path_5854" data-name="Path 5854" d="M1230.865,605.347c0,2.012.956,3.667,2.127,3.663s2.129-1.655,2.125-3.663l-.01-20.8c0-2.017-.958-3.672-2.129-3.667s-2.125,1.65-2.128,3.667Z" transform="translate(-1230.851 -580.879)" fill="#ebebeb"/>
              </g>
            </g>
            <path id="Path_5855" data-name="Path 5855" d="M732.362,961.659a29.458,29.458,0,0,0,29.378,29.367l201.248-.1a29.443,29.443,0,0,0,29.352-29.387l-.209-480.163a29.443,29.443,0,0,0-29.383-29.342l-201.253.082a29.434,29.434,0,0,0-29.347,29.377Z" transform="translate(-448.175 -402.264)" fill="url(#linear-gradient-4)"/>
            <g id="Group_3919" data-name="Group 3919" transform="translate(372.504 73.516)">
              <g id="Group_3918" data-name="Group 3918" transform="translate(0 0)">
                <g id="Group_3916" data-name="Group 3916" transform="translate(0 1.538)">
                  <path id="Path_5856" data-name="Path 5856" d="M977.066,503.236A2.715,2.715,0,0,1,974.3,505.9l-69.645.025a2.707,2.707,0,0,1-2.76-2.679h0a2.718,2.718,0,0,1,2.76-2.668l69.645-.031a2.723,2.723,0,0,1,2.765,2.689Z" transform="translate(-901.895 -500.547)" fill="url(#linear-gradient-5)"/>
                </g>
                <g id="Group_3917" data-name="Group 3917" transform="translate(86.096)">
                  <path id="Path_5857" data-name="Path 5857" d="M1076.335,502.274a4.681,4.681,0,1,1-4.677-4.676A4.7,4.7,0,0,1,1076.335,502.274Z" transform="translate(-1066.973 -497.598)" fill="url(#linear-gradient-6)"/>
                </g>
              </g>
            </g>
            <g id="Group_3921" data-name="Group 3921" transform="translate(399.07 546.222)">
              <g id="Group_3920" data-name="Group 3920" transform="translate(0 0)">
                <path id="Path_5858" data-name="Path 5858" d="M969.054,1403.867a14.592,14.592,0,0,1,.02,29.185h-1.64a14.587,14.587,0,1,1-.02-29.173Z" transform="translate(-952.832 -1403.867)" fill="url(#linear-gradient-7)"/>
              </g>
            </g>
            <path id="Path_5859" data-name="Path 5859" d="M1157.723,1791.807c.489,1.459,1.369,3.991,3,8.629l-11.453.362a96.472,96.472,0,0,0-5.385-12.322c-39.38-16.034-66.971-57.972-84.242-92.657,14.863,20.119,46.68,60.916,66.813,70.267,18.927,8.791,39.019.978,41.647-.123C1165.9,1766.921,1151.693,1773.849,1157.723,1791.807Z" transform="translate(-604.87 -997.302)" fill="#feb783" opacity="0.2" style="mix-blend-mode: multiply;isolation: isolate"/>
            <g id="Group_3922" data-name="Group 3922" transform="translate(292.325 106.326)">
              <path id="Path_5860" data-name="Path 5860" d="M748.358,989.237l244.933-.113L993.1,560.469l-244.938.1Z" transform="translate(-748.164 -560.469)" fill="url(#linear-gradient-8)"/>
              <path id="Path_5861" data-name="Path 5861" d="M993.155,612.419v-4.381H960.264v-47.55l-4.386,0v47.545H921.911v-47.53h-4.379v76.566H860.554V560.534h-4.386v76.541h-54.7V560.56h-4.385v76.515H792.62V560.56l-4.385.005v76.51h-40v4.38h40V762.714H748.289V767.1h39.946v85.831c0,3.127-.112,6.158-.3,9.132h-39.6v4.38h39.242c-2.994,30.533-16.451,52.231-39.213,63.976l.006,5.073c25.522-12.107,40.511-35.571,43.619-69.049h4.731c-1.772,25.007-10.186,44.718-25.1,58.664A76.818,76.818,0,0,1,748.37,939.8v4.747a81.725,81.725,0,0,0,26.24-16.237q1.788-1.68,3.458-3.463c5.709,10.889,20.632,30.351,54.36,30.351h23.739v34h4.386v-34h56.978v33.972h4.379V955.2h33.967v33.956l4.386,0V955.2h33.045v-4.385H960.264V842.336h32.994v-4.38H960.264V767.1h32.963l0-4.386H960.264V685.287h32.927l0-4.38H960.264V612.419ZM792.62,641.455h4.462V762.714H792.62Zm-.3,220.608c.184-2.974.3-6.011.3-9.132V767.1h4.462v89.116q0,2.971-.118,5.847Zm63.844,88.749H832.429c-33.04,0-46.608-19.889-51.233-29.5,11.709-14.1,18.382-32.485,19.909-54.865h55.063Zm0-88.749H801.355q.114-2.881.112-5.847V767.1h54.7Zm0-99.349h-54.7V641.455h54.7Zm4.386-121.259h56.978v39.453H860.554Zm0,43.832h56.978v71.082a8.929,8.929,0,0,0-6.383,6.345h-50.6Zm56.978,265.525H860.554V842.336h56.978Zm0-112.855H860.554V767.1h50.54a8.937,8.937,0,0,0,6.438,6.529Zm2.235-68.392a4.5,4.5,0,0,1-2.235-.611h-.006a4.576,4.576,0,0,1-1.788-1.854,4.508,4.508,0,0,1-.541-2.1,4.62,4.62,0,0,1,2.328-3.952h.006a4.387,4.387,0,0,1,4.379-.051h.006a4.666,4.666,0,0,1,1.782,1.721,4.6,4.6,0,0,1,.632,2.282,4.5,4.5,0,0,1-.535,2.1,4.554,4.554,0,0,1-1.879,1.9h-.006A4.487,4.487,0,0,1,919.767,769.564Zm36.111,181.248H921.911V842.336h33.967Zm0-112.855H921.911v-64.3a8.959,8.959,0,0,0,6.531-6.56h27.436Zm0-75.243h-27.5a8.948,8.948,0,0,0-6.469-6.376V685.287h33.967Zm0-81.807H921.911V612.419h33.967Z" transform="translate(-748.196 -560.478)" fill="#fff"/>
            </g>
            <g id="Group_3926" data-name="Group 3926" transform="translate(418.594 472.776)">
              <path id="Path_5862" data-name="Path 5862" d="M1175.572,1341.261s-65.366-65.672-89.171-73.149c-22.074-6.926-74.448-6.682-89.661-.163-14.475,6.2-9.952,54.324,69.41,63.269,11.6,11.52,35.571,133.2,102.852,180.146Z" transform="translate(-990.268 -1262.988)" fill="url(#linear-gradient-9)"/>
              <g id="Group_3923" data-name="Group 3923" transform="translate(86.272 92.208)">
                <path id="Path_5863" data-name="Path 5863" d="M1178.9,1491.96c15.7,37.323,38.057,78.457,71.014,101.457,0,0-21.4-8.292-33.573-23.358-30.32-37.526-45.635-85.993-57.615-119.577l-3.044-10.7S1171.845,1475.183,1178.9,1491.96Z" transform="translate(-1155.684 -1439.785)" fill="#feb783" opacity="0.2" style="mix-blend-mode: multiply;isolation: isolate"/>
              </g>
              <g id="Group_3924" data-name="Group 3924" transform="translate(122.301 21.453)">
                <path id="Path_5864" data-name="Path 5864" d="M1296.087,1376.058l-10.509-12.926h0c-.351-.347-33.278-37.558-60.812-59.01,0,0,21.8,13.885,31.129,22.309,18.457,16.685,20.214,18.11,25.211,23.938C1292.719,1363.895,1296.087,1376.058,1296.087,1376.058Z" transform="translate(-1224.766 -1304.121)" fill="#feb783" opacity="0.2" style="mix-blend-mode: multiply;isolation: isolate"/>
              </g>
              <path id="Path_5865" data-name="Path 5865" d="M1008.474,1270.046c11.593-3.616,36.844-4.748,48.758-3.178-7.823,5.215-13.258,16.726-14.561,21.085-6.194.814-26.679-7.61-35.622-12.683C1004.746,1273.785,1006.157,1270.769,1008.474,1270.046Z" transform="translate(-997.736 -1264.514)" fill="url(#linear-gradient-10)"/>
              <g id="Group_3925" data-name="Group 3925" transform="translate(74.241 9.626)">
                <path id="Path_5866" data-name="Path 5866" d="M1161.074,1281.7s-16.875,8.651-22.089,17.919c-2.018,3.606-6.368,16.43-6.368,16.43a48.228,48.228,0,0,1,4.563-18.345c5.421-10.951,22.431-16.165,23.073-16.256Z" transform="translate(-1132.617 -1281.445)" fill="#feb783" opacity="0.2" style="mix-blend-mode: multiply;isolation: isolate"/>
              </g>
            </g>
            <g id="Group_3927" data-name="Group 3927" transform="translate(470.9 158.699)">
              <path id="Path_5867" data-name="Path 5867" d="M1090.557,680.95c0,15.069,20.041,36.952,20.041,36.952s20.032-21.761,20.032-36.952a20.036,20.036,0,1,0-40.073,0Z" transform="translate(-1090.557 -660.913)" fill="#f65662"/>
              <ellipse id="Ellipse_136" data-name="Ellipse 136" cx="12.193" cy="12.191" rx="12.193" ry="12.191" transform="matrix(1, -0.003, 0.003, 1, 7.814, 7.881)" fill="#fff"/>
            </g>
            <ellipse id="Ellipse_137" data-name="Ellipse 137" cx="5.378" cy="5.378" rx="5.378" ry="5.378" transform="translate(485.277 223.423)" fill="#f65662"/>
            <g id="Group_3928" data-name="Group 3928" transform="translate(298.35 339.3)">
              <path id="Path_5868" data-name="Path 5868" d="M759.717,1027.195c0,15.066,20.042,36.951,20.042,36.951s20.031-21.763,20.031-36.951a20.037,20.037,0,0,0-40.073,0Z" transform="translate(-759.717 -1007.158)" fill="url(#linear-gradient-11)"/>
              <ellipse id="Ellipse_138" data-name="Ellipse 138" cx="12.193" cy="12.193" rx="12.193" ry="12.193" transform="translate(7.849 7.844)" fill="#fff"/>
            </g>
            <ellipse id="Ellipse_139" data-name="Ellipse 139" cx="5.867" cy="5.867" rx="5.867" ry="5.867" transform="translate(312.484 403.857)" fill="#f65662"/>
            <g id="Group_3930" data-name="Group 3930" transform="translate(319.035 226.6)">
              <g id="Group_3929" data-name="Group 3929" transform="translate(0 0)">
                <path id="Path_5869" data-name="Path 5869" d="M882.5,791.079a2.606,2.606,0,0,0-2.608,2.608V971.754H801.983a2.608,2.608,0,1,0,0,5.215H882.5a2.606,2.606,0,0,0,2.608-2.608V796.294h82.051a2.608,2.608,0,1,0,0-5.215Z" transform="translate(-799.375 -791.079)" fill="#f65662"/>
              </g>
            </g>
            <g id="Group_3931" data-name="Group 3931" transform="translate(393.029 220.326)">
              <ellipse id="Ellipse_140" data-name="Ellipse 140" cx="9.779" cy="9.779" rx="9.779" ry="9.779" transform="translate(0 0)" fill="url(#linear-gradient-12)"/>
              <circle id="Ellipse_141" data-name="Ellipse 141" cx="5.623" cy="5.623" r="5.623" transform="translate(1.827 9.779) rotate(-45)" fill="#fff"/>
            </g>
            <g id="Group_3944" data-name="Group 3944" transform="translate(451.483 243.309)">
              <path id="Path_5870" data-name="Path 5870" d="M1053.33,1075.283c0,1.294,61.785,2.353,138.01,2.353s138-1.06,138-2.353-61.78-2.353-138-2.353S1053.33,1073.989,1053.33,1075.283Z" transform="translate(-1053.33 -942.64)" opacity="0.15" style="mix-blend-mode: multiply;isolation: isolate"/>
              <g id="Group_3943" data-name="Group 3943" transform="translate(2.49)">
                <g id="Group_3932" data-name="Group 3932" transform="translate(157.152 14.424)">
                  <path id="Path_5871" data-name="Path 5871" d="M1403.668,949.84h66.461c.9-1.055,6.564-8.052,6.53-13.492h0c0-.132,0-.25-.006-.388h-5.377a.4.4,0,0,1-.4-.387h0s-.316-19.6-.316-23.968h0c.189-3.794-9.61-8.394-19.466-10.742h0l-9.892-2.45h0c-.177-.122-31.751-30.844-39.757-39.849h0c-6.286-7.07-14.155-7.793-29.7-7.793h0c-3.662,0-7.732.041-12.32.046V949.84Z" transform="translate(-1359.424 -850.772)" fill="#c73338"/>
                </g>
                <path id="Path_5872" data-name="Path 5872" d="M1358.643,850.041v99.842H1469.95s7.33-8.439,6.7-14.693H1470.9s-.311-19.594-.311-23.954c0-4.329-9.887-8.688-19.767-11.133l-9.9-2.456s-31.578-30.743-39.554-39.706C1393.41,848.956,1382.882,850.041,1358.643,850.041Z" transform="translate(-1201.898 -835.978)" fill="url(#linear-gradient-13)"/>
                <path id="Path_5873" data-name="Path 5873" d="M1358.643,952.593V942.07h83.793c1.309.322,3.754.933,8.39,2.084,7.818,1.925,15.626,5.063,18.549,8.439Z" transform="translate(-1201.898 -880.03)" opacity="0.3" fill="url(#linear-gradient-14)" style="mix-blend-mode: screen;isolation: isolate"/>
                <path id="Path_5874" data-name="Path 5874" d="M1082.246,1010.205h144.791v11.964h-53.9v4.91h-82.607v-4.91h-8.281Z" transform="translate(-1069.655 -912.629)" fill="url(#linear-gradient-15)"/>
                <g id="Group_3933" data-name="Group 3933" transform="translate(251.957 98.803)">
                  <path id="Path_5875" data-name="Path 5875" d="M1558.258,1013.369v-.81H1541.2v.81Z" transform="translate(-1541.202 -1012.559)" fill="url(#linear-gradient-16)" style="mix-blend-mode: multiply;isolation: isolate"/>
                </g>
                <g id="Group_3934" data-name="Group 3934" transform="translate(179.48 32.413)">
                  <path id="Path_5876" data-name="Path 5876" d="M1430.493,888.594c-1.437-2.964-5.668-3.33-10.884-3.33h-.47c-.753,0-1.528.01-2.317.01h-14.587v28.573l41.352.265h0c-1.844-3.585-11.369-22.084-13.095-25.517Z" transform="translate(-1402.236 -885.264)" fill="#c73338"/>
                </g>
                <g id="Group_3935" data-name="Group 3935" transform="translate(264.949 76.215)">
                  <path id="Path_5877" data-name="Path 5877" d="M1566.113,982.313h3.515c-.083-4.916-.153-10.33-.164-13.065h-3.352v13.065Z" transform="translate(-1566.113 -969.248)" fill="#c73338"/>
                </g>
                <g id="Group_3936" data-name="Group 3936" transform="translate(118.469 101.375)">
                  <path id="Path_5878" data-name="Path 5878" d="M1285.254,1032.185v0Zm33.01-.8v-13.89h-32.2v13.89Z" transform="translate(-1285.254 -1017.49)" fill="#ccc"/>
                </g>
                <rect id="Rectangle_24" data-name="Rectangle 24" width="120.562" height="6.3" transform="translate(18.952 91.561)" fill="url(#linear-gradient-17)"/>
                <g id="Group_3937" data-name="Group 3937" transform="translate(39.636 92.753)">
                  <path id="Path_5879" data-name="Path 5879" d="M1134.1,1021.167a20.21,20.21,0,1,0,20.2-20.209A20.192,20.192,0,0,0,1134.1,1021.167Z" transform="translate(-1134.102 -1000.957)" fill="#0d0d0d"/>
                  <path id="Path_5880" data-name="Path 5880" d="M1134.1,1021.65a20.21,20.21,0,1,0,20.2-20.215A20.2,20.2,0,0,0,1134.1,1021.65Z" transform="translate(-1134.102 -1001.185)" fill="#2b2a54"/>
                  <path id="Path_5881" data-name="Path 5881" d="M1159.256,1002.875a21.016,21.016,0,0,0-14.812,6.153,18.848,18.848,0,0,1,29.623,0A20.784,20.784,0,0,0,1159.256,1002.875Z" transform="translate(-1139.05 -1001.378)" fill="#2b2a54" opacity="0.6" style="mix-blend-mode: screen;isolation: isolate"/>
                  <path id="Path_5882" data-name="Path 5882" d="M1151.8,1029.638a10.978,10.978,0,1,0,10.977-10.976A10.975,10.975,0,0,0,1151.8,1029.638Z" transform="translate(-1142.569 -1009.429)" fill="#b1afb3"/>
                  <path id="Path_5883" data-name="Path 5883" d="M1158.926,1033.041a7.265,7.265,0,1,0,7.256-7.268A7.256,7.256,0,0,0,1158.926,1033.041Z" transform="translate(-1145.979 -1012.83)" fill="#e6e6e6"/>
                  <path id="Path_5884" data-name="Path 5884" d="M1163.124,1056.421a11.906,11.906,0,0,0,10.6-6.636,11.488,11.488,0,0,1-21.192,0A11.892,11.892,0,0,0,1163.124,1056.421Z" transform="translate(-1142.92 -1024.32)" fill="#333"/>
                </g>
                <path id="Path_5885" data-name="Path 5885" d="M1487.8,996.807a22.632,22.632,0,0,1,22.635,22.629c0,.234-.025.458-.025.688H1465.2c0-.229-.031-.454-.031-.688A22.638,22.638,0,0,1,1487.8,996.807Z" transform="translate(-1252.864 -906.219)" fill="#121c38"/>
                <g id="Group_3938" data-name="Group 3938" transform="translate(214.73 92.753)">
                  <path id="Path_5886" data-name="Path 5886" d="M1469.824,1021.167a20.21,20.21,0,1,0,20.2-20.209A20.192,20.192,0,0,0,1469.824,1021.167Z" transform="translate(-1469.824 -1000.957)" fill="#0d0d0d"/>
                  <path id="Path_5887" data-name="Path 5887" d="M1469.824,1021.65a20.21,20.21,0,1,0,20.2-20.215A20.2,20.2,0,0,0,1469.824,1021.65Z" transform="translate(-1469.824 -1001.185)" fill="#2b2a54"/>
                  <path id="Path_5888" data-name="Path 5888" d="M1494.981,1002.875a20.987,20.987,0,0,0-14.8,6.153,18.836,18.836,0,0,1,29.611,0A20.744,20.744,0,0,0,1494.981,1002.875Z" transform="translate(-1474.777 -1001.378)" fill="#2b2a54" opacity="0.6" style="mix-blend-mode: screen;isolation: isolate"/>
                  <path id="Path_5889" data-name="Path 5889" d="M1487.52,1029.638a10.976,10.976,0,1,0,10.975-10.976A10.974,10.974,0,0,0,1487.52,1029.638Z" transform="translate(-1478.291 -1009.429)" fill="#b1afb3"/>
                  <path id="Path_5890" data-name="Path 5890" d="M1493.574,1032.525a7.823,7.823,0,1,0,7.818-7.828A7.82,7.82,0,0,0,1493.574,1032.525Z" transform="translate(-1481.187 -1012.315)" fill="#e6e6e6"/>
                  <path id="Path_5891" data-name="Path 5891" d="M1498.845,1056.421a11.877,11.877,0,0,0,10.6-6.636,11.485,11.485,0,0,1-21.188,0A11.89,11.89,0,0,0,1498.845,1056.421Z" transform="translate(-1478.641 -1024.32)" fill="#333"/>
                </g>
                <g id="Group_3939" data-name="Group 3939" transform="translate(169.915 31.058)">
                  <path id="Path_5892" data-name="Path 5892" d="M1384.706,964.585V883.058a.394.394,0,0,0-.4-.392h0a.4.4,0,0,0-.408.392h0v81.527a.419.419,0,0,0,.408.407h0a.417.417,0,0,0,.4-.407Z" transform="translate(-1383.896 -882.666)" fill="url(#linear-gradient-18)" style="mix-blend-mode: multiply;isolation: isolate"/>
                </g>
                <rect id="Rectangle_25" data-name="Rectangle 25" width="9.993" height="2.613" transform="translate(179.485 65.738)" fill="url(#linear-gradient-14)" style="mix-blend-mode: multiply;isolation: isolate"/>
                <path id="Path_5893" data-name="Path 5893" d="M1569.657,982.36h-4.325V968.486h4.152C1569.494,971.125,1569.57,977.084,1569.657,982.36Z" transform="translate(-1300.79 -892.668)" fill="#f2f5d2"/>
                <path id="Path_5894" data-name="Path 5894" d="M1489.047,914.316l-1.039.968h-10.518l-14.444-26.718C1472.668,898.282,1484.586,909.936,1489.047,914.316Z" transform="translate(-1251.852 -854.43)" fill="#d0ebeb"/>
                <path id="Path_5895" data-name="Path 5895" d="M1443.871,914.151s-11.486-22.308-13.4-26.118-7.655-3.534-14.027-3.534h-14.994v29.378Z" transform="translate(-1222.382 -852.482)" fill="#d0ebeb"/>
                <rect id="Rectangle_26" data-name="Rectangle 26" width="33.809" height="15.514" transform="translate(118.468 100.566)" fill="url(#linear-gradient-20)"/>
                <g id="Group_3942" data-name="Group 3942">
                  <g id="Group_3940" data-name="Group 3940" transform="translate(0 90.272)">
                    <path id="Path_5896" data-name="Path 5896" d="M1058.1,997.005v0Z" transform="translate(-1058.105 -996.201)" fill="#ccc"/>
                  </g>
                  <rect id="Rectangle_27" data-name="Rectangle 27" width="149.725" height="91.81" rx="2" transform="translate(0)" fill="url(#linear-gradient-21)"/>
                  <g id="Group_3941" data-name="Group 3941" transform="translate(5.812 4.818)">
                    <path id="Path_5897" data-name="Path 5897" d="M1199.772,913.952H1077.305c-4.4,0-8.041-3.046-8.057-6.927V839.291h0c.016-3.881,3.657-6.927,8.057-6.937h122.467c4.41.01,8.057,3.056,8.057,6.937l.006,67.734h0c-.006,3.882-3.653,6.927-8.063,6.927Zm7.246-74.662c0-3.336-3.187-6.117-7.246-6.122H1077.305c-4.049.005-7.247,2.786-7.247,6.122v67.734h0c0,3.326,3.2,6.117,7.247,6.117h122.467c4.059,0,7.246-2.791,7.246-6.117V839.291Z" transform="translate(-1069.248 -832.354)" fill="#d9d9d9" opacity="0.3" style="mix-blend-mode: multiply;isolation: isolate"/>
                  </g>
                </g>
                <rect id="Rectangle_28" data-name="Rectangle 28" width="128.746" height="0.805" transform="translate(10.793 23.745)" fill="#d9d9d9" opacity="0.3" style="mix-blend-mode: multiply;isolation: isolate"/>
                <rect id="Rectangle_29" data-name="Rectangle 29" width="128.746" height="0.805" transform="translate(10.793 46.277)" fill="#ccc" opacity="0.3" style="mix-blend-mode: multiply;isolation: isolate"/>
                <rect id="Rectangle_30" data-name="Rectangle 30" width="128.746" height="0.815" transform="translate(10.793 68.814)" fill="#b3b3b3" opacity="0.3" style="mix-blend-mode: multiply;isolation: isolate"/>
              </g>
            </g>
            <g id="Group_3953" data-name="Group 3953" transform="translate(88.543 276.756)">
              <path id="Path_5898" data-name="Path 5898" d="M546.575,1143.051c0,1.737-42.34,3.158-94.571,3.158s-94.569-1.421-94.569-3.158,42.333-3.168,94.569-3.168S546.575,1141.3,546.575,1143.051Z" transform="translate(-357.436 -1008.119)" opacity="0.2" style="mix-blend-mode: multiply;isolation: isolate"/>
              <g id="Group_3952" data-name="Group 3952" transform="translate(13.237)">
                <g id="Group_3946" data-name="Group 3946" transform="translate(0 67.488)">
                  <g id="Group_3945" data-name="Group 3945">
                    <path id="Path_5899" data-name="Path 5899" d="M463.983,1082.577a1.53,1.53,0,0,1-1.522,1.529H384.34a1.532,1.532,0,0,1-1.523-1.529v-64.423a1.522,1.522,0,0,1,1.523-1.513h78.12a1.52,1.52,0,0,1,1.522,1.513Z" transform="translate(-382.817 -1016.641)" fill="url(#linear-gradient-22)"/>
                  </g>
                  <path id="Path_5900" data-name="Path 5900" d="M461.762,1031.875a2.847,2.847,0,0,1-2.85,2.858H437.222a2.849,2.849,0,0,1-2.852-2.858h0a2.845,2.845,0,0,1,2.852-2.842h21.689a2.844,2.844,0,0,1,2.85,2.842Z" transform="translate(-407.483 -1022.571)" fill="#ec9821"/>
                  <path id="Path_5901" data-name="Path 5901" d="M382.817,1018.849v.952h81.166v-.952a1.458,1.458,0,0,0-.234-.753H383.059A1.4,1.4,0,0,0,382.817,1018.849Z" transform="translate(-382.817 -1017.337)" fill="#ffab70" opacity="0.3" style="mix-blend-mode: screen;isolation: isolate"/>
                </g>
                <path id="Path_5902" data-name="Path 5902" d="M516.135,1082.577v-64.423a1.516,1.516,0,0,0-1.518-1.513H495.879v65.667a1.8,1.8,0,0,0,1.79,1.8h16.948A1.526,1.526,0,0,0,516.135,1082.577Z" transform="translate(-436.912 -949.153)" opacity="0.6" fill="url(#linear-gradient-23)" style="mix-blend-mode: multiply;isolation: isolate"/>
                <g id="Group_3949" data-name="Group 3949" transform="translate(65.086 55.539)">
                  <g id="Group_3948" data-name="Group 3948">
                    <g id="Group_3947" data-name="Group 3947">
                      <path id="Path_5903" data-name="Path 5903" d="M603.141,1071.346a1.8,1.8,0,0,1-1.79,1.8H509.4a1.8,1.8,0,0,1-1.788-1.8V995.524a1.8,1.8,0,0,1,1.788-1.793h91.95a1.791,1.791,0,0,1,1.79,1.793Z" transform="translate(-507.612 -993.731)" fill="url(#linear-gradient-24)"/>
                    </g>
                  </g>
                  <path id="Path_5904" data-name="Path 5904" d="M600.529,1011.671a3.357,3.357,0,0,1-3.362,3.352H571.645a3.355,3.355,0,0,1-3.359-3.352h0a3.362,3.362,0,0,1,3.359-3.361h25.522a3.364,3.364,0,0,1,3.362,3.361Z" transform="translate(-536.642 -1000.706)" fill="#ec9821"/>
                  <path id="Path_5905" data-name="Path 5905" d="M507.612,996.338v1.114h95.529v-1.114a1.753,1.753,0,0,0-.277-.9H507.89A1.732,1.732,0,0,0,507.612,996.338Z" transform="translate(-507.612 -994.546)" fill="#ffab70" opacity="0.3" style="mix-blend-mode: screen;isolation: isolate"/>
                </g>
                <g id="Group_3951" data-name="Group 3951" transform="translate(82.256)">
                  <g id="Group_3950" data-name="Group 3950">
                    <path id="Path_5906" data-name="Path 5906" d="M607.33,941.514a1.257,1.257,0,0,1-1.253,1.258H541.783a1.253,1.253,0,0,1-1.251-1.258V888.5a1.252,1.252,0,0,1,1.251-1.257h64.294a1.256,1.256,0,0,1,1.253,1.257Z" transform="translate(-540.532 -887.241)" fill="url(#linear-gradient-25)"/>
                  </g>
                  <path id="Path_5907" data-name="Path 5907" d="M605.5,899.8a2.341,2.341,0,0,1-2.345,2.343H585.3a2.34,2.34,0,0,1-2.343-2.343h0a2.347,2.347,0,0,1,2.343-2.351h17.852A2.348,2.348,0,0,1,605.5,899.8Z" transform="translate(-560.832 -892.123)" fill="#ec9821"/>
                  <path id="Path_5908" data-name="Path 5908" d="M540.532,889.069v.777h66.8v-.777a1.32,1.32,0,0,0-.194-.636h-66.41A1.277,1.277,0,0,0,540.532,889.069Z" transform="translate(-540.532 -887.811)" fill="#ffab70" opacity="0.3" style="mix-blend-mode: screen;isolation: isolate"/>
                </g>
              </g>
            </g>
            <path id="Path_5909" data-name="Path 5909" d="M921.679,701.113H850.064a5.172,5.172,0,0,0-5.157,5.157v20.049a5.171,5.171,0,0,0,5.157,5.157H880.32c.041.132,11.3,11.162,11.3,11.162,1.568,1.65,2.118.652,1.937-.428,0,0-2.177-10.6-2.138-10.734h30.258a5.171,5.171,0,0,0,5.157-5.157V706.27A5.172,5.172,0,0,0,921.679,701.113Z" transform="translate(-502.126 -521.445)" opacity="0.1" style="mix-blend-mode: multiply;isolation: isolate"/>
            <g id="Group_3955" data-name="Group 3955" transform="translate(345.825 177.276)">
              <path id="Path_5910" data-name="Path 5910" d="M927.515,696.528H855.9a5.171,5.171,0,0,0-5.157,5.157v20.049a5.171,5.171,0,0,0,5.157,5.157h30.257c.04.133,11.3,11.162,11.3,11.162,1.568,1.65,2.119.652,1.938-.428,0,0-2.177-10.6-2.138-10.734h30.258a5.172,5.172,0,0,0,5.157-5.157V701.685A5.172,5.172,0,0,0,927.515,696.528Z" transform="translate(-850.742 -696.528)" fill="#fff"/>
              <g id="Group_3954" data-name="Group 3954" transform="translate(12.32 9.746)">
                <path id="Path_5911" data-name="Path 5911" d="M882.219,721.07a6.09,6.09,0,0,1-.285,1.935,4.25,4.25,0,0,1-.795,1.449,3.486,3.486,0,0,1-1.235.915,4.2,4.2,0,0,1-3.194,0,3.557,3.557,0,0,1-1.242-.915,4.229,4.229,0,0,1-.815-1.449,6,6,0,0,1-.288-1.935v-.481a6.014,6.014,0,0,1,.288-1.935,4.274,4.274,0,0,1,.807-1.457,3.445,3.445,0,0,1,1.238-.917,3.915,3.915,0,0,1,1.592-.318,3.97,3.97,0,0,1,1.6.318,3.47,3.47,0,0,1,1.243.917,4.209,4.209,0,0,1,.8,1.457,6.1,6.1,0,0,1,.285,1.935Zm-1.645-.493a5.92,5.92,0,0,0-.153-1.4,2.945,2.945,0,0,0-.449-1.019,1.9,1.9,0,0,0-.715-.619,2.167,2.167,0,0,0-.968-.211,2.114,2.114,0,0,0-.948.211,1.945,1.945,0,0,0-.719.619,3.054,3.054,0,0,0-.456,1.019,5.639,5.639,0,0,0-.157,1.4v.493a5.653,5.653,0,0,0,.157,1.4,3.074,3.074,0,0,0,.459,1.026,2.016,2.016,0,0,0,.726.624,2.122,2.122,0,0,0,.952.211,1.926,1.926,0,0,0,1.678-.833,4.182,4.182,0,0,0,.591-2.432Z" transform="translate(-874.365 -715.572)" fill="url(#linear-gradient-26)"/>
                <path id="Path_5912" data-name="Path 5912" d="M899.081,721.752a5.434,5.434,0,0,1-.178,1.439,3.442,3.442,0,0,1-.525,1.131,2.426,2.426,0,0,1-.858.741,2.552,2.552,0,0,1-1.182.265,2.5,2.5,0,0,1-1.118-.229,2.29,2.29,0,0,1-.807-.66l-.079.761h-1.429v-9.985h1.579v3.626a2.263,2.263,0,0,1,.784-.6,2.519,2.519,0,0,1,1.057-.207,2.567,2.567,0,0,1,1.194.263,2.414,2.414,0,0,1,.86.736,3.362,3.362,0,0,1,.525,1.136,5.6,5.6,0,0,1,.176,1.447Zm-1.581-.135a4.837,4.837,0,0,0-.075-.879,2.232,2.232,0,0,0-.254-.728,1.444,1.444,0,0,0-.486-.5,1.417,1.417,0,0,0-.756-.183,1.545,1.545,0,0,0-.9.242,1.563,1.563,0,0,0-.54.655v2.9a1.651,1.651,0,0,0,.545.665,1.526,1.526,0,0,0,.912.253,1.325,1.325,0,0,0,1.219-.666,2.173,2.173,0,0,0,.262-.725,4.942,4.942,0,0,0,.077-.9Z" transform="translate(-883.236 -715.215)" fill="url(#linear-gradient-27)"/>
                <path id="Path_5913" data-name="Path 5913" d="M908.381,718.421v7.66a2.319,2.319,0,0,1-.537,1.647,2.05,2.05,0,0,1-1.569.568,3.626,3.626,0,0,1-.431-.028,3.873,3.873,0,0,1-.41-.081v-1.249a1.915,1.915,0,0,0,.29.043A2.693,2.693,0,0,0,906,727a.808.808,0,0,0,.6-.212.979.979,0,0,0,.209-.705v-7.66Zm-1.716-1.827a.831.831,0,0,1,.231-.6.87.87,0,0,1,.659-.24.88.88,0,0,1,.663.24.834.834,0,0,1,.235.6.818.818,0,0,1-.235.6.889.889,0,0,1-.663.237.879.879,0,0,1-.659-.237A.815.815,0,0,1,906.665,716.594Z" transform="translate(-889.231 -715.472)" fill="url(#linear-gradient-28)"/>
                <path id="Path_5914" data-name="Path 5914" d="M917.808,727.917a3.615,3.615,0,0,1-1.4-.258,3.07,3.07,0,0,1-1.729-1.795,3.765,3.765,0,0,1-.236-1.345v-.262a4.331,4.331,0,0,1,.249-1.505,3.462,3.462,0,0,1,.675-1.143,3.049,3.049,0,0,1,1.01-.729,3.094,3.094,0,0,1,1.251-.254,3.225,3.225,0,0,1,1.333.254,2.525,2.525,0,0,1,.936.719,3.074,3.074,0,0,1,.552,1.1,5.057,5.057,0,0,1,.184,1.4v.675h-4.6a2.433,2.433,0,0,0,.173.754,1.9,1.9,0,0,0,.38.6,1.749,1.749,0,0,0,.568.393,1.84,1.84,0,0,0,.746.143,2.111,2.111,0,0,0,1.017-.232,2.383,2.383,0,0,0,.751-.644l.853.812a2.959,2.959,0,0,1-.42.492,2.914,2.914,0,0,1-.586.423,3.52,3.52,0,0,1-.756.3A3.659,3.659,0,0,1,917.808,727.917Zm-.188-6.026a1.331,1.331,0,0,0-1.049.456,2.345,2.345,0,0,0-.512,1.268h3.01V723.5a2.814,2.814,0,0,0-.1-.6,1.483,1.483,0,0,0-.252-.514,1.181,1.181,0,0,0-.438-.356A1.477,1.477,0,0,0,917.619,721.891Z" transform="translate(-893.539 -717.804)" fill="url(#linear-gradient-29)"/>
                <path id="Path_5915" data-name="Path 5915" d="M931.916,726.656a1.606,1.606,0,0,0,.535-.087,1.294,1.294,0,0,0,.436-.247,1.228,1.228,0,0,0,.3-.38,1.18,1.18,0,0,0,.126-.483H934.8a2.276,2.276,0,0,1-.25.958,2.585,2.585,0,0,1-.619.784,2.95,2.95,0,0,1-.9.525,3.141,3.141,0,0,1-1.1.192,3.342,3.342,0,0,1-1.413-.278,2.819,2.819,0,0,1-1-.761,3.22,3.22,0,0,1-.6-1.123,4.784,4.784,0,0,1-.194-1.368v-.227a4.758,4.758,0,0,1,.194-1.365,3.263,3.263,0,0,1,.6-1.128,2.861,2.861,0,0,1,1-.764,3.649,3.649,0,0,1,2.569-.083,2.612,2.612,0,0,1,.9.544,2.457,2.457,0,0,1,.586.841,2.871,2.871,0,0,1,.232,1.072h-1.489a1.67,1.67,0,0,0-.112-.534,1.322,1.322,0,0,0-.71-.739,1.436,1.436,0,0,0-.573-.112,1.46,1.46,0,0,0-.795.2,1.485,1.485,0,0,0-.494.517,2.276,2.276,0,0,0-.25.728,4.986,4.986,0,0,0-.069.825v.227a5,5,0,0,0,.069.836,2.259,2.259,0,0,0,.25.725,1.365,1.365,0,0,0,1.289.708Z" transform="translate(-900.376 -717.804)" fill="url(#linear-gradient-29)"/>
                <path id="Path_5916" data-name="Path 5916" d="M944.588,717.593V719.3h1.24v1.172h-1.24V724.4a1.265,1.265,0,0,0,.05.39.515.515,0,0,0,.15.232.532.532,0,0,0,.23.109,1.33,1.33,0,0,0,.295.031,2.22,2.22,0,0,0,.316-.025c.1-.016.18-.028.236-.041v1.222c-.125.033-.273.069-.438.1a3.207,3.207,0,0,1-.6.048,2.482,2.482,0,0,1-.727-.1,1.464,1.464,0,0,1-.577-.339,1.551,1.551,0,0,1-.38-.611,2.7,2.7,0,0,1-.138-.922v-4.019h-1.155V719.3h1.155v-1.708Z" transform="translate(-906.654 -716.353)" fill="url(#linear-gradient-31)"/>
                <path id="Path_5917" data-name="Path 5917" d="M952.436,716.594a.831.831,0,0,1,.232-.6.864.864,0,0,1,.657-.24.886.886,0,0,1,.664.24.833.833,0,0,1,.235.6.817.817,0,0,1-.235.6.9.9,0,0,1-.664.237.873.873,0,0,1-.657-.237A.815.815,0,0,1,952.436,716.594Zm1.678,8.862h-1.581v-7.035h1.581Z" transform="translate(-911.718 -715.472)" fill="url(#linear-gradient-32)"/>
                <path id="Path_5918" data-name="Path 5918" d="M961.455,725.9l1.488-5.032h1.633l-2.437,7.036h-1.37l-2.458-7.036h1.637Z" transform="translate(-914.529 -717.921)" fill="url(#linear-gradient-33)"/>
                <path id="Path_5919" data-name="Path 5919" d="M975.711,727.917a3.608,3.608,0,0,1-1.4-.258,3.063,3.063,0,0,1-1.731-1.795,3.817,3.817,0,0,1-.232-1.345v-.262a4.321,4.321,0,0,1,.245-1.505,3.479,3.479,0,0,1,.677-1.143,2.993,2.993,0,0,1,1.011-.729,3.083,3.083,0,0,1,1.252-.254,3.242,3.242,0,0,1,1.333.254,2.54,2.54,0,0,1,.934.719,3.078,3.078,0,0,1,.55,1.1,5.057,5.057,0,0,1,.183,1.4v.675h-4.594a2.558,2.558,0,0,0,.174.754,1.857,1.857,0,0,0,.379.6,1.753,1.753,0,0,0,.568.393,1.826,1.826,0,0,0,.746.143,2.116,2.116,0,0,0,1.016-.232,2.439,2.439,0,0,0,.753-.644l.846.812a2.858,2.858,0,0,1-.417.492,2.77,2.77,0,0,1-.582.423,3.484,3.484,0,0,1-.759.3A3.662,3.662,0,0,1,975.711,727.917Zm-.188-6.026a1.326,1.326,0,0,0-1.049.456,2.351,2.351,0,0,0-.512,1.268h3.013V723.5a2.927,2.927,0,0,0-.1-.6,1.478,1.478,0,0,0-.25-.514,1.2,1.2,0,0,0-.438-.356A1.469,1.469,0,0,0,975.523,721.891Z" transform="translate(-921.243 -717.804)" fill="url(#linear-gradient-29)"/>
              </g>
            </g>
            <path id="Path_5920" data-name="Path 5920" d="M765.042,407.166l1.414-1.892h0l2.441-3.268a3.57,3.57,0,0,0-.725-4.974l-4.541-3.39a3.562,3.562,0,0,0-4.971.723l-3.851,5.157a54.777,54.777,0,0,0-22.187-7.2v-7.759h5.962a6.755,6.755,0,0,0,0-13.51H715.712a6.755,6.755,0,0,0,0,13.51h5.966v7.757a55.34,55.34,0,1,0,43.364,14.844Z" transform="translate(-419.354 -363.559)" opacity="0.1" style="mix-blend-mode: multiply;isolation: isolate"/>
            <g id="Group_3962" data-name="Group 3962" transform="translate(249.948 0)">
              <rect id="Rectangle_31" data-name="Rectangle 31" width="10.945" height="12.72" transform="translate(49.768 9.751)" fill="#ec9821"/>
              <g id="Group_3957" data-name="Group 3957" transform="translate(81.42 21.887)">
                <g id="Group_3956" data-name="Group 3956">
                  <path id="Path_5921" data-name="Path 5921" d="M833.953,413.914a3.547,3.547,0,0,1-4.961.721l-4.551-3.392a3.567,3.567,0,0,1-.716-4.973l4.627-6.2a3.561,3.561,0,0,1,4.971-.723l4.541,3.39a3.57,3.57,0,0,1,.726,4.974Z" transform="translate(-823.023 -398.646)" fill="#ec9821"/>
                </g>
              </g>
              <path id="Path_5922" data-name="Path 5922" d="M835.844,415l-9.241-6.9a6.611,6.611,0,0,0-.731-.344l-2.147,2.873a3.567,3.567,0,0,0,.716,4.973l4.551,3.393a3.547,3.547,0,0,0,4.961-.721l2.2-2.936C836.028,415.233,835.972,415.091,835.844,415Z" transform="translate(-741.602 -381.117)" fill="#ec9821" opacity="0.3" style="mix-blend-mode: multiply;isolation: isolate"/>
              <path id="Path_5923" data-name="Path 5923" d="M777.386,452.168a55.239,55.239,0,1,1-55.241-55.239A55.238,55.238,0,0,1,777.386,452.168Z" transform="translate(-666.909 -375.937)" fill="url(#linear-gradient-35)"/>
              <path id="Path_5924" data-name="Path 5924" d="M776.428,462.814a43.634,43.634,0,1,1-43.636-43.634A43.634,43.634,0,0,1,776.428,462.814Z" transform="translate(-677.555 -386.584)" fill="url(#linear-gradient-36)"/>
              <path id="Path_5925" data-name="Path 5925" d="M776.04,467.117a38.943,38.943,0,1,1-38.946-38.943A38.942,38.942,0,0,1,776.04,467.117Z" transform="translate(-681.858 -390.887)" fill="url(#linear-gradient-37)"/>
              <rect id="Rectangle_32" data-name="Rectangle 32" width="10.945" height="5.093" transform="translate(49.768 10.528)" fill="#ec9821" opacity="0.4" style="mix-blend-mode: multiply;isolation: isolate"/>
              <path id="Path_5926" data-name="Path 5926" d="M774.325,363.436a6.754,6.754,0,0,1-6.753,6.753H744.7a6.754,6.754,0,0,1-6.754-6.753h0a6.755,6.755,0,0,1,6.754-6.756h22.874a6.755,6.755,0,0,1,6.753,6.756Z" transform="translate(-700.896 -356.68)" fill="url(#linear-gradient-38)"/>
              <g id="Group_3958" data-name="Group 3958" transform="translate(20.729 27.146)" opacity="0.6" style="mix-blend-mode: screen;isolation: isolate">
                <path id="Path_5927" data-name="Path 5927" d="M725.872,411.246a3.964,3.964,0,0,1-2.722,4.375,30.543,30.543,0,0,0-10.354,5.97,3.96,3.96,0,0,1-5.144.163h0c-1.47-1.258-1.328-3.8.521-5.432a37.666,37.666,0,0,1,12.739-7.342c2.33-.787,4.606.369,4.96,2.267Z" transform="translate(-706.655 -408.73)" fill="url(#linear-gradient-39)"/>
              </g>
              <path id="Path_5928" data-name="Path 5928" d="M807.766,450.011a38.916,38.916,0,0,0-34.949-21.837v38.943Z" transform="translate(-717.581 -390.887)" fill="url(#linear-gradient-40)" style="mix-blend-mode: multiply;isolation: isolate"/>
              <g id="Group_3961" data-name="Group 3961" transform="translate(44.21 61.24)">
                <g id="Group_3960" data-name="Group 3960">
                  <g id="Group_3959" data-name="Group 3959">
                    <path id="Path_5929" data-name="Path 5929" d="M788.6,474.287l-35.938,17.8a1.774,1.774,0,1,0,1.576,3.178l35.935-17.8a1.772,1.772,0,1,0-1.573-3.176Z" transform="translate(-751.676 -474.101)" fill="#f65662"/>
                  </g>
                </g>
                <path id="Path_5930" data-name="Path 5930" d="M762.387,488.94a7.654,7.654,0,1,0,10.257,3.459A7.664,7.664,0,0,0,762.387,488.94Z" transform="translate(-754.766 -480.821)" fill="#f65662"/>
                <path id="Path_5931" data-name="Path 5931" d="M767.223,495.377a4.1,4.1,0,1,1-1.853,5.5A4.11,4.11,0,0,1,767.223,495.377Z" transform="translate(-758.024 -484.077)" fill="#f65662" style="mix-blend-mode: screen;isolation: isolate"/>
              </g>
            </g>
            <g id="Group_3963" data-name="Group 3963" transform="translate(219.677 190.946)">
              <path id="Path_5932" data-name="Path 5932" d="M651.671,744.144a21.4,21.4,0,1,1-21.4-21.41A21.406,21.406,0,0,1,651.671,744.144Z" transform="translate(-608.867 -722.734)" fill="url(#linear-gradient-41)"/>
              <path id="Path_5933" data-name="Path 5933" d="M637.813,741.479c.326-.794.865-.794,1.192,0l2.49,6.038a2.8,2.8,0,0,0,2.155,1.566l6.52.5c.855.066,1.024.575.366,1.135l-4.97,4.243a2.792,2.792,0,0,0-.825,2.536l1.538,6.356c.2.835-.234,1.151-.968.7l-5.566-3.426a2.808,2.808,0,0,0-2.669,0l-5.567,3.426c-.733.45-1.171.134-.967-.7l1.532-6.356a2.79,2.79,0,0,0-.825-2.536l-4.966-4.243c-.657-.558-.489-1.069.367-1.135l6.514-.5a2.793,2.793,0,0,0,2.154-1.566Z" transform="translate(-617.007 -731.418)" fill="#fff"/>
            </g>
            <g id="Group_3964" data-name="Group 3964" transform="translate(154.835 99.153)">
              <path id="Path_5934" data-name="Path 5934" d="M589.551,564.158a1.3,1.3,0,0,0-.784.263c-.479.354-.94.721-1.408,1.075l-.678.532a1.315,1.315,0,0,0-.224,1.836,1.294,1.294,0,0,0,1.026.5,1.271,1.271,0,0,0,.6-.148c.8-.622,1.592-1.23,2.4-1.844a1.3,1.3,0,0,0,.12-1.7,1.313,1.313,0,0,0-1.047-.52Zm-10.232,8.188a1.29,1.29,0,0,0-.838.305c-.667.563-1.334,1.136-2.012,1.711a1.283,1.283,0,0,0-.14,1.824,1.3,1.3,0,0,0,1.718.237c.744-.637,1.493-1.276,2.244-1.9a1.3,1.3,0,0,0-.972-2.173Zm-9.81,8.692a1.3,1.3,0,0,0-.884.343l-.72.658c-.4.376-.8.751-1.21,1.137a1.3,1.3,0,0,0,1.734,1.94c.7-.667,1.406-1.326,2.116-1.989a1.291,1.291,0,0,0-.074-1.673,1.314,1.314,0,0,0-.963-.417Zm-9.359,9.15a1.3,1.3,0,0,0-.935.395l-.731.741c-.364.374-.739.751-1.105,1.125a1.306,1.306,0,0,0,1.877,1.816c.055-.056.112-.112.165-.17.6-.624,1.192-1.24,1.8-1.859a1.3,1.3,0,0,0-.16-1.678,1.285,1.285,0,0,0-.906-.369Zm-8.9,9.618a1.314,1.314,0,0,0-.98.435l-.357.4c-.468.532-.927,1.064-1.385,1.6a1.3,1.3,0,0,0,.988,2.144,1.314,1.314,0,0,0,.882-.339c.639-.741,1.291-1.49,1.937-2.225a1.281,1.281,0,0,0-.219-1.681,1.308,1.308,0,0,0-.866-.326Zm-8.429,10.028a1.3,1.3,0,0,0-1.021.495l-.991,1.271-.626.795a1.3,1.3,0,0,0,.219,1.823,1.319,1.319,0,0,0,.815.285,1.292,1.292,0,0,0,.881-.344q.905-1.157,1.821-2.309a1.31,1.31,0,0,0-1.1-2.015Zm-7.9,10.45a1.3,1.3,0,0,0-1.057.537c-.367.512-.721,1.024-1.085,1.533l-.438.636a1.311,1.311,0,0,0,.334,1.816,1.291,1.291,0,0,0,1.666-.155c.555-.792,1.12-1.586,1.683-2.371a1.3,1.3,0,0,0-.341-1.75,1.283,1.283,0,0,0-.761-.247Zm-7.37,10.835a1.306,1.306,0,0,0-1.1.6c-.364.573-.729,1.156-1.105,1.742l-.3.479a1.308,1.308,0,0,0,.413,1.8,1.33,1.33,0,0,0,.7.2,1.314,1.314,0,0,0,.978-.438c.529-.84,1.067-1.683,1.6-2.516a1.3,1.3,0,0,0-1.177-1.864Zm-6.817,11.18a1.309,1.309,0,0,0-1.131.647c-.438.761-.876,1.532-1.3,2.294a1.308,1.308,0,0,0,.5,1.778,1.287,1.287,0,0,0,1.671-.351c.486-.868.975-1.724,1.474-2.585a1.305,1.305,0,0,0-1.212-1.782Zm-6.254,11.518a1.308,1.308,0,0,0-1.164.706c-.408.785-.8,1.566-1.2,2.348a1.294,1.294,0,0,0,.578,1.742,1.328,1.328,0,0,0,.591.14,1.3,1.3,0,0,0,1.089-.583c.443-.886.882-1.755,1.332-2.633a1.294,1.294,0,0,0-.634-1.576,1.307,1.307,0,0,0-.593-.143Zm-5.667,11.817a1.328,1.328,0,0,0-1.2.771c-.146.314-.293.637-.438.96-.219.479-.438.947-.646,1.429a1.3,1.3,0,0,0,1.2,1.828,1.3,1.3,0,0,0,1.189-.777c.041-.089.081-.181.122-.27.339-.774.68-1.541,1.026-2.307a1.292,1.292,0,0,0-.716-1.52,1.324,1.324,0,0,0-.532-.114Zm-5.083,12.073a1.3,1.3,0,0,0-1.212.828c-.323.816-.647,1.627-.96,2.453a1.3,1.3,0,0,0,.756,1.678,1.284,1.284,0,0,0,1.661-.716q.5-1.329,1.023-2.654a1.289,1.289,0,0,0-.789-1.495,1.271,1.271,0,0,0-.479-.094Zm-4.464,12.318a1.3,1.3,0,0,0-1.233.891c-.282.825-.552,1.661-.825,2.493a1.31,1.31,0,0,0,.841,1.642,1.274,1.274,0,0,0,1.581-.695c.3-.938.611-1.88.924-2.815a1.309,1.309,0,0,0-1.288-1.518Zm-3.843,12.537a1.308,1.308,0,0,0-1.26.955c-.229.846-.458,1.691-.677,2.537a1.322,1.322,0,0,0,.935,1.6,1.278,1.278,0,0,0,1.51-.723c.252-.939.507-1.871.769-2.811a1.29,1.29,0,0,0-.925-1.508,1.3,1.3,0,0,0-.351-.048Zm-3.2,12.7a1.3,1.3,0,0,0-1.273,1.021c-.125.573-.252,1.146-.377,1.722l-.176.843A1.315,1.315,0,0,0,491.4,720.4a1.329,1.329,0,0,0,.283.031,1.287,1.287,0,0,0,1.2-.838c.2-.953.41-1.892.623-2.84a1.312,1.312,0,0,0-1.013-1.459,1.289,1.289,0,0,0-.275-.03Zm-2.561,12.852a1.309,1.309,0,0,0-1.289,1.082c-.1.637-.208,1.281-.3,1.918l-.115.69a1.291,1.291,0,0,0,1.075,1.484,1.17,1.17,0,0,0,.209.017,1.312,1.312,0,0,0,1.24-.885q.233-1.437.481-2.87a1.3,1.3,0,0,0-1.08-1.418,1.224,1.224,0,0,0-.218-.018Zm-1.9,12.96a1.3,1.3,0,0,0-1.3,1.151c-.061.51-.125,1.021-.176,1.533-.043.353-.074.708-.115,1.074a1.3,1.3,0,0,0,2.549.49q.161-1.448.336-2.893a1.3,1.3,0,0,0-1.143-1.347,1.472,1.472,0,0,0-.156-.008Zm-1.266,13.038a1.307,1.307,0,0,0-1.3,1.213c-.043.586-.073,1.179-.1,1.762l-.053.866a1.306,1.306,0,0,0,1.227,1.378.678.678,0,0,0,.077,0,1.309,1.309,0,0,0,1.265-.971q.088-1.5.2-2.984a1.312,1.312,0,0,0-1.209-1.263c-.033,0-.064,0-.1,0Zm-.606,13.093a1.308,1.308,0,0,0-1.311,1.283c-.011.586-.011,1.169-.021,1.764l-.01.854a1.3,1.3,0,0,0,1.289,1.316h.017a1.3,1.3,0,0,0,1.284-1.077c.01-.965.026-1.925.049-2.888a1.3,1.3,0,0,0-1.279-1.251.054.054,0,0,0-.018,0Zm.026,13.1h-.038a1.306,1.306,0,0,0-1.268,1.344c.033.878.064,1.754.1,2.63a1.319,1.319,0,0,0,1.309,1.248l.058,0a1.293,1.293,0,0,0,1.228-1.079c-.038-.986-.069-1.974-.1-2.962a1.3,1.3,0,0,0-1.3-1.178Zm18.274,89.4a1.315,1.315,0,0,0-1.222,1.783l.252.647c.239.6.479,1.207.718,1.813a1.3,1.3,0,0,0,1.691.713,1.321,1.321,0,0,0,.774-1.574c-.376-.922-.746-1.838-1.113-2.765a1.292,1.292,0,0,0-1.1-.617Zm5.124,12.071a1.218,1.218,0,0,0-.545.123,1.3,1.3,0,0,0-.636,1.726c.145.337.3.663.448.983.209.469.427.948.647,1.406a1.315,1.315,0,0,0,1.182.744,1.3,1.3,0,0,0,1.24-1.7c-.421-.9-.838-1.8-1.248-2.7a1.311,1.311,0,0,0-1.088-.581Zm5.722,11.776a1.3,1.3,0,0,0-1.156,1.895c.395.779.813,1.564,1.22,2.348a1.3,1.3,0,0,0,1.149.693,1.243,1.243,0,0,0,.609-.153,1.3,1.3,0,0,0,.609-1.624q-.688-1.3-1.365-2.608a1.3,1.3,0,0,0-1.064-.55Zm6.3,11.49A1.3,1.3,0,0,0,520.214,907c.323.545.647,1.095.97,1.639l.364.611a1.3,1.3,0,0,0,2.317-1.181q-.741-1.238-1.467-2.486a1.319,1.319,0,0,0-1.067-.545Zm6.883,11.144a1.287,1.287,0,0,0-.705.209,1.321,1.321,0,0,0-.39,1.814c.29.448.593.9.886,1.334.188.28.384.56.573.855a1.28,1.28,0,0,0,1.795.372,1.318,1.318,0,0,0,.456-1.665c-.535-.8-1.059-1.6-1.587-2.409a1.3,1.3,0,0,0-1.029-.51Zm7.431,10.793a1.324,1.324,0,0,0-.761.244,1.3,1.3,0,0,0-.3,1.818c.367.524.752,1.035,1.128,1.549l.438.58a1.309,1.309,0,0,0,1.831.265,1.3,1.3,0,0,0,.392-1.614c-.6-.811-1.2-1.63-1.8-2.45a1.312,1.312,0,0,0-.932-.392Zm7.958,10.406a1.284,1.284,0,0,0-.812.285,1.311,1.311,0,0,0-.2,1.839c.542.688,1.095,1.375,1.658,2.053a1.325,1.325,0,0,0,1.011.474,1.308,1.308,0,0,0,.83-.3,1.292,1.292,0,0,0,.29-1.665q-.962-1.176-1.915-2.358a1.3,1.3,0,0,0-.859-.326Zm8.463,10.008a1.311,1.311,0,0,0-.978,2.18l.647.719c.366.417.741.835,1.1,1.242a1.3,1.3,0,0,0,1.994-1.675c-.652-.719-1.311-1.452-1.956-2.18a1.3,1.3,0,0,0-.812-.286Zm8.946,9.575a1.3,1.3,0,0,0-.932,2.22l.678.688c.387.4.771.794,1.158,1.192a1.3,1.3,0,0,0,1.836.01,1.328,1.328,0,0,0,.01-1.859c-.152-.148-.3-.3-.451-.453-.512-.515-1.018-1.029-1.528-1.543a1.26,1.26,0,0,0-.772-.255Zm402.617-34.16a1.294,1.294,0,0,0-.942.4c-.576.829-1.141,1.634-1.727,2.455a1.3,1.3,0,0,0,.407,1.66,1.333,1.333,0,0,0,.754.24,1.284,1.284,0,0,0,1.059-.556c.515-.708,1.014-1.426,1.513-2.149a1.305,1.305,0,0,0-.321-1.818,1.283,1.283,0,0,0-.743-.235Zm7.217-10.935a1.318,1.318,0,0,0-.994.459q-.809,1.291-1.625,2.572a1.313,1.313,0,0,0,.5,1.594,1.332,1.332,0,0,0,.7.208,1.306,1.306,0,0,0,1.1-.606c.468-.743.952-1.482,1.421-2.231a1.3,1.3,0,0,0-.418-1.8,1.309,1.309,0,0,0-.692-.2Zm6.667-11.276a1.313,1.313,0,0,0-1.07.55c-.484.871-.972,1.742-1.466,2.6a1.305,1.305,0,0,0,2.363,1.085l.249-.438c.351-.617.719-1.233,1.065-1.854a1.322,1.322,0,0,0-.509-1.783,1.284,1.284,0,0,0-.632-.163Zm6.1-11.587a1.324,1.324,0,0,0-1.177.713q-.625,1.261-1.258,2.516a1.305,1.305,0,0,0,2.408.988l.439-.866c.239-.494.494-.982.743-1.471a1.286,1.286,0,0,0-.575-1.742,1.332,1.332,0,0,0-.581-.137ZM989.09,877.1a1.3,1.3,0,0,0-1.141.678c-.382.886-.774,1.782-1.166,2.664a1.308,1.308,0,0,0,1.258,1.665,1.293,1.293,0,0,0,1.187-.784l.387-.876c.229-.515.448-1.014.667-1.523a1.3,1.3,0,0,0-1.192-1.824Zm4.884-12.152a1.3,1.3,0,0,0-1.13.657q-.52,1.39-1.054,2.77a1.305,1.305,0,0,0,.8,1.544,1.249,1.249,0,0,0,.464.086,1.3,1.3,0,0,0,1.217-.836c.2-.555.413-1.095.621-1.65l.306-.8a1.308,1.308,0,0,0-.759-1.685,1.246,1.246,0,0,0-.464-.087Zm4.269-12.4a1.289,1.289,0,0,0-1.156.724q-.443,1.4-.9,2.791a1.3,1.3,0,0,0,.861,1.538,1.462,1.462,0,0,0,.407.066,1.313,1.313,0,0,0,1.243-.9c.2-.616.4-1.242.595-1.859l.2-.657a1.319,1.319,0,0,0-1.253-1.7Zm3.652-12.575a1.292,1.292,0,0,0-1.192.789c-.244.937-.5,1.885-.754,2.816a1.3,1.3,0,0,0,.937,1.488,1.394,1.394,0,0,0,.352.045,1.288,1.288,0,0,0,1.248-.957c.137-.489.265-.973.387-1.462.1-.367.188-.718.28-1.075a1.306,1.306,0,0,0-.922-1.6,1.271,1.271,0,0,0-.336-.046Zm2.995-12.759a1.269,1.269,0,0,0-1.2.84c-.2.963-.407,1.926-.621,2.884a1.31,1.31,0,0,0,1.029,1.421,1.64,1.64,0,0,0,.275.026,1.3,1.3,0,0,0,1.273-1.029c.158-.728.3-1.461.459-2.19l.072-.376a1.319,1.319,0,0,0-1.019-1.548,1.2,1.2,0,0,0-.27-.026Zm.84-104.137a1.218,1.218,0,0,0-.25.026,1.312,1.312,0,0,0-1.054,1.363c.189.974.372,1.941.55,2.918a1.307,1.307,0,0,0,1.232.881,1.27,1.27,0,0,0,.24-.021,1.3,1.3,0,0,0,1.044-1.512c-.163-.866-.321-1.731-.489-2.6a1.3,1.3,0,0,0-1.274-1.057Zm-2.811-12.8a1.292,1.292,0,0,0-.311.038,1.312,1.312,0,0,0-.988,1.4c.239.973.478,1.953.708,2.931a1.285,1.285,0,0,0,1.487.761,1.3,1.3,0,0,0,.978-1.572l-.158-.7c-.143-.616-.291-1.24-.448-1.867a1.308,1.308,0,0,0-1.268-.993Zm-3.428-12.644a1.285,1.285,0,0,0-.376.056,1.319,1.319,0,0,0-.907,1.536q.427,1.406.83,2.817a1.307,1.307,0,0,0,1.171.726,1.417,1.417,0,0,0,.362-.051,1.317,1.317,0,0,0,.9-1.617l-.255-.855c-.153-.562-.31-1.126-.479-1.678a1.291,1.291,0,0,0-1.243-.932ZM995.4,685.189a1.3,1.3,0,0,0-1.249,1.672c.326.92.647,1.833.963,2.755a1.3,1.3,0,0,0,1.136.668,1.338,1.338,0,0,0,.427-.071,1.3,1.3,0,0,0,.81-1.653l-.2-.565c-.219-.645-.437-1.291-.667-1.938a1.293,1.293,0,0,0-1.222-.868Zm-4.69-12.227a1.282,1.282,0,0,0-.49.1,1.336,1.336,0,0,0-.78,1.572c.372.894.744,1.808,1.105,2.709a1.309,1.309,0,0,0,1.131.657,1.374,1.374,0,0,0,.494-.1,1.312,1.312,0,0,0,.718-1.7L992.4,675l-.49-1.22a1.289,1.289,0,0,0-1.2-.818Zm-5.338-11.969a1.293,1.293,0,0,0-1.243,1.668q.634,1.334,1.253,2.674a1.291,1.291,0,0,0,1.656.518,1.307,1.307,0,0,0,.647-1.732l-.749-1.6-.377-.782a1.312,1.312,0,0,0-1.186-.749Zm-5.894-11.7a1.268,1.268,0,0,0-.615.156,1.313,1.313,0,0,0-.617,1.578q.687,1.284,1.365,2.575a1.33,1.33,0,0,0,1.116.606,1.315,1.315,0,0,0,.606-.146,1.291,1.291,0,0,0,.54-1.757c-.27-.512-.54-1.011-.82-1.523-.138-.272-.285-.532-.427-.8a1.3,1.3,0,0,0-1.147-.687ZM973.006,637.9a1.275,1.275,0,0,0-.667.188,1.321,1.321,0,0,0-.53,1.652c.51.844,1.014,1.687,1.513,2.537a1.314,1.314,0,0,0,1.686.313,1.3,1.3,0,0,0,.464-1.781c-.321-.552-.657-1.1-.993-1.657l-.362-.616a1.291,1.291,0,0,0-1.11-.637Zm-7.049-11.042a1.285,1.285,0,0,0-.718.217,1.313,1.313,0,0,0-.454,1.66q.825,1.219,1.635,2.45a1.283,1.283,0,0,0,.988.461,1.3,1.3,0,0,0,1.084-2.028c-.479-.73-.973-1.459-1.452-2.179a1.3,1.3,0,0,0-1.085-.581Zm-7.574-10.686a1.271,1.271,0,0,0-.769.257,1.32,1.32,0,0,0-.367,1.7c.6.789,1.187,1.591,1.772,2.388a1.3,1.3,0,0,0,1.97-1.7c-.519-.71-1.039-1.408-1.563-2.12a1.283,1.283,0,0,0-1.044-.531Zm-8.1-10.3a1.3,1.3,0,0,0-1.059,2.073c.626.753,1.237,1.5,1.854,2.261a1.293,1.293,0,0,0,1.666.033,1.307,1.307,0,0,0,.2-1.836l-.469-.6c-.4-.489-.789-.98-1.187-1.459a1.3,1.3,0,0,0-1-.476ZM941.667,596a1.3,1.3,0,0,0-1.029,2.1c.667.726,1.314,1.441,1.971,2.177a1.3,1.3,0,0,0,1.788-1.886l-.428-.482c-.437-.489-.886-.99-1.334-1.479a1.31,1.31,0,0,0-.968-.428Zm-9.1-9.44a1.3,1.3,0,0,0-1.014,2.116c.7.688,1.4,1.386,2.084,2.081a1.3,1.3,0,0,0,.789.267,1.276,1.276,0,0,0,.912-.377,1.3,1.3,0,0,0,.011-1.844c-.611-.626-1.238-1.253-1.864-1.869a1.309,1.309,0,0,0-.917-.374Zm-9.54-8.969a1.314,1.314,0,0,0-.977.435,1.292,1.292,0,0,0-.036,1.686q1.054.948,2.109,1.9a1.28,1.28,0,0,0,.855.321,1.3,1.3,0,0,0,.972-.433,1.287,1.287,0,0,0-.091-1.829c-.408-.376-.825-.741-1.243-1.117l-.718-.637a1.31,1.31,0,0,0-.872-.331Zm-9.982-8.49a1.3,1.3,0,0,0-.973,2.165c.759.616,1.533,1.25,2.292,1.875a1.3,1.3,0,0,0,1.543-2.091c-.5-.417-1-.823-1.513-1.23l-.529-.428a1.311,1.311,0,0,0-.82-.291Zm-10.38-8a1.289,1.289,0,0,0-1.049.537,1.309,1.309,0,0,0,.163,1.721c.8.584,1.6,1.177,2.394,1.768a1.3,1.3,0,0,0,.6.147,1.3,1.3,0,0,0,.785-2.345c-.708-.53-1.416-1.052-2.124-1.574a1.31,1.31,0,0,0-.769-.254ZM891.9,553.633a1.3,1.3,0,0,0-1.081.58,1.33,1.33,0,0,0,.256,1.737c.825.545,1.655,1.092,2.475,1.645a1.306,1.306,0,0,0,.535.115,1.287,1.287,0,0,0,1.074-.576,1.3,1.3,0,0,0-.346-1.81c-.734-.49-1.462-.981-2.19-1.47a1.289,1.289,0,0,0-.722-.221Zm-11.119-6.914a1.3,1.3,0,0,0-1.115.637,1.317,1.317,0,0,0,.448,1.8h0c.81.473,1.625.96,2.429,1.441a1.273,1.273,0,0,0,.479.094,1.306,1.306,0,0,0,.672-2.424l-.845-.51c-.469-.283-.927-.563-1.4-.845a1.277,1.277,0,0,0-.668-.188Z" transform="translate(-484.541 -546.719)" fill="#8c8c8c"/>
            </g>
            <g id="Group_3966" data-name="Group 3966" transform="translate(565.852 163.561)">
              <path id="Path_5935" data-name="Path 5935" d="M1315.421,691.644a21.4,21.4,0,1,1-21.4-21.41A21.406,21.406,0,0,1,1315.421,691.644Z" transform="translate(-1272.617 -670.234)" fill="url(#linear-gradient-42)"/>
              <g id="Group_3965" data-name="Group 3965" transform="translate(9.46 7.17)">
                <path id="Path_5936" data-name="Path 5936" d="M1297.192,706.232v9.321a2.8,2.8,0,0,1-.164,1.377.6.6,0,0,1-.234.174,4.2,4.2,0,0,1-1.369.074h-3.586a1.675,1.675,0,0,1-.653-.054,1.076,1.076,0,0,1-.351-.332,4.913,4.913,0,0,1-.052-1.474V705.5a2.274,2.274,0,0,1,.047-.715.721.721,0,0,1,.6-.431,10.626,10.626,0,0,1,1.369-.02h2.694a3.856,3.856,0,0,1,1.264.079.643.643,0,0,1,.361.328A5.377,5.377,0,0,1,1297.192,706.232Z" transform="translate(-1290.755 -693.714)" fill="#fff"/>
                <path id="Path_5937" data-name="Path 5937" d="M1319.9,697.333a2.018,2.018,0,0,1,.926,1.375,1.719,1.719,0,0,1-.789,1.729c-.2.113-.442.143-.662.26.02.17.177.222.26.3a1.791,1.791,0,0,1,.534.614,1.725,1.725,0,0,1-.545,2.167c-.167.1-.357.137-.51.242,0,.176.173.206.24.29a1.892,1.892,0,0,1,.305,1.741,1.5,1.5,0,0,1-1.186.93c-.525.057-1.079,0-1.625,0-3.132.013-6.382.013-9.667.013-.769,0-1.559.166-1.863-.275a3.059,3.059,0,0,1-.144-1.4v-4.594c0-1.024-.04-2.091,0-3.079.144-3.929,2-6.158,3.927-8.315.214-.232.485-.538.734-.79s.631-.565.7-.838a3.066,3.066,0,0,0,.03-.654c0-.216,0-.443.011-.647a9.228,9.228,0,0,1,.061-1.272,1.394,1.394,0,0,1,1.2-1.134,1.888,1.888,0,0,1,1.808.963,6.535,6.535,0,0,1,.53,4.278,11.052,11.052,0,0,1-.657,1.9c-.167.4-.372.9-.59,1.332a2.065,2.065,0,0,0-.189.438c.052.26.729.227,1.035.227,1.268,0,2.485-.01,3.752-.01a6.372,6.372,0,0,1,2.318.143,1.74,1.74,0,0,1,1,1.51,2.149,2.149,0,0,1-.732,1.956,4.553,4.553,0,0,1-.541.3C1319.6,697.194,1319.786,697.24,1319.9,697.333Z" transform="translate(-1297.647 -683.982)" fill="#fff"/>
              </g>
            </g>
            <path id="Path_5938" data-name="Path 5938" d="M300.649,807.71c4.329-41.235-22.736-77.878-60.436-81.841s-46.578,30.53-50.9,71.764-2.475,73.633,35.225,77.585S296.319,848.952,300.649,807.71Z" transform="translate(-187.666 -533.137)" fill="#e6edff"/>
            <path id="Path_5939" data-name="Path 5939" d="M1495.079,1204.391c-28.553,30.06-29.414,75.609-1.936,101.722,27.493,26.1,55.532,4.161,84.088-25.9s46.817-56.881,19.329-82.984S1523.638,1174.32,1495.079,1204.391Z" transform="translate(-802.682 -750.33)" fill="#e6edff"/>
          </g>
        </g>
      </g>
    </g>
  </g>
</svg>
